  0
SECTION
  2
HEADER
  9
$ACADVER
  1
AC1014
  9
$HANDSEED
  5
FFFF
  9
$MEASUREMENT
 70
     1
  0
ENDSEC
  0
SECTION
  2
TABLES
  0
TABLE
  2
VPORT
  5
8
330
0
100
AcDbSymbolTable
 70
     4
  0
VPORT
  5
2E
330
8
100
AcDbSymbolTableRecord
100
AcDbViewportTableRecord
  2
*ACTIVE
 70
     0
 10
0.0
 20
0.0
 11
1.0
 21
1.0
 12
210.0
 22
148.5
 13
0.0
 23
0.0
 14
10.0
 24
10.0
 15
10.0
 25
10.0
 16
0.0
 26
0.0
 36
1.0
 17
0.0
 27
0.0
 37
0.0
 40
341.0
 41
1.24
 42
50.0
 43
0.0
 44
0.0
 50
0.0
 51
0.0
 71
     0
 72
   100
 73
     1
 74
     3
 75
     0
 76
     0
 77
     0
 78
     0
  0
ENDTAB
  0
TABLE
  2
LTYPE
  5
5
330
0
100
AcDbSymbolTable
 70
     1
  0
LTYPE
  5
14
330
5
100
AcDbSymbolTableRecord
100
AcDbLinetypeTableRecord
  2
BYBLOCK
 70
     0
  3

 72
    65
 73
     0
 40
0.0
  0
LTYPE
  5
15
330
5
100
AcDbSymbolTableRecord
100
AcDbLinetypeTableRecord
  2
BYLAYER
 70
     0
  3

 72
    65
 73
     0
 40
0.0
  0
LTYPE
  5
16
330
5
100
AcDbSymbolTableRecord
100
AcDbLinetypeTableRecord
  2
CONTINUOUS
 70
     0
  3
Solid line
 72
    65
 73
     0
 40
0.0
  0
ENDTAB
  0
TABLE
  2
LAYER
  5
2
100
AcDbSymbolTable
 70
2
  0
LAYER
  5
50
100
AcDbSymbolTableRecord
100
AcDbLayerTableRecord
  2
0
 70
0
  6
CONTINUOUS
  0
LAYER
  5
51
100
AcDbSymbolTableRecord
100
AcDbLayerTableRecord
  2
Layer_1
 70
0
  6
CONTINUOUS
  0
ENDTAB
  0
TABLE
  2
STYLE
  5
3
330
0
100
AcDbSymbolTable
 70
     1
  0
STYLE
  5
11
330
3
100
AcDbSymbolTableRecord
100
AcDbTextStyleTableRecord
  2
STANDARD
 70
     0
 40
0.0
 41
1.0
 50
0.0
 71
     0
 42
2.5
  3
txt
  4

  0
ENDTAB
  0
TABLE
  2
VIEW
  5
6
330
0
100
AcDbSymbolTable
 70
     0
  0
ENDTAB
  0
TABLE
  2
UCS
  5
7
330
0
100
AcDbSymbolTable
 70
     0
  0
ENDTAB
  0
TABLE
  2
APPID
  5
9
330
0
100
AcDbSymbolTable
 70
     2
  0
APPID
  5
12
330
9
100
AcDbSymbolTableRecord
100
AcDbRegAppTableRecord
  2
ACAD
 70
     0
  0
ENDTAB
  0
TABLE
  2
DIMSTYLE
  5
A
330
0
100
AcDbSymbolTable
 70
     1
  0
DIMSTYLE
105
27
330
A
100
AcDbSymbolTableRecord
100
AcDbDimStyleTableRecord
  2
ISO-25
 70
     0
  3

  4

  5

  6

  7

 40
1.0
 41
2.5
 42
0.625
 43
3.75
 44
1.25
 45
0.0
 46
0.0
 47
0.0
 48
0.0
140
2.5
141
2.5
142
0.0
143
0.03937007874016
144
1.0
145
0.0
146
1.0
147
0.625
 71
     0
 72
     0
 73
     0
 74
     0
 75
     0
 76
     0
 77
     1
 78
     8
170
     0
171
     3
172
     1
173
     0
174
     0
175
     0
176
     0
177
     0
178
     0
270
     2
271
     2
272
     2
273
     2
274
     3
340
11
275
     0
280
     0
281
     0
282
     0
283
     0
284
     8
285
     0
286
     0
287
     3
288
     0
  0
ENDTAB
  0
TABLE
  2
BLOCK_RECORD
  5
1
330
0
100
AcDbSymbolTable
 70
     1
  0
BLOCK_RECORD
  5
1F
330
1
100
AcDbSymbolTableRecord
100
AcDbBlockTableRecord
  2
*MODEL_SPACE
  0
BLOCK_RECORD
  5
1B
330
1
100
AcDbSymbolTableRecord
100
AcDbBlockTableRecord
  2
*PAPER_SPACE
  0
ENDTAB
  0
ENDSEC
  0
SECTION
  2
BLOCKS
  0
BLOCK
  5
20
330
1F
100
AcDbEntity
  8
0
100
AcDbBlockBegin
  2
*MODEL_SPACE
 70
     0
 10
0.0
 20
0.0
 30
0.0
  3
*MODEL_SPACE
  1

  0
ENDBLK
  5
21
330
1F
100
AcDbEntity
  8
0
100
AcDbBlockEnd
  0
BLOCK
  5
1C
330
1B
100
AcDbEntity
 67
     1
  8
0
100
AcDbBlockBegin
  2
*PAPER_SPACE
  1

  0
ENDBLK
  5
1D
330
1B
100
AcDbEntity
 67
     1
  8
0
100
AcDbBlockEnd
  0
ENDSEC
  0
SECTION
  2
ENTITIES
  0
SPLINE
  5
100
100
AcDbEntity
  8
Layer_1
 62
7
100
AcDbSpline
 70
8
 71
3
 72
8
 73
4
 74
0
 40
0
 40
0
 40
0
 40
0
 40
1
 40
1
 40
1
 40
1
 10
11.909275
 20
5.972141
 30
0.0
 10
11.909275
 20
2.693150
 30
0.0
 10
9.251129
 20
0.035004
 30
0.0
 10
5.972139
 20
0.035004
 30
0.0
  0
SPLINE
  5
101
100
AcDbEntity
  8
Layer_1
 62
7
100
AcDbSpline
 70
8
 71
3
 72
8
 73
4
 74
0
 40
0
 40
0
 40
0
 40
0
 40
1
 40
1
 40
1
 40
1
 10
5.972139
 20
0.035004
 30
0.0
 10
2.693149
 20
0.035004
 30
0.0
 10
0.035002
 20
2.693150
 30
0.0
 10
0.035002
 20
5.972141
 30
0.0
  0
SPLINE
  5
102
100
AcDbEntity
  8
Layer_1
 62
7
100
AcDbSpline
 70
8
 71
3
 72
8
 73
4
 74
0
 40
0
 40
0
 40
0
 40
0
 40
1
 40
1
 40
1
 40
1
 10
0.035002
 20
5.972141
 30
0.0
 10
0.035002
 20
8.093275
 30
0.0
 10
1.166614
 20
10.053285
 30
0.0
 10
3.003571
 20
11.113852
 30
0.0
  0
SPLINE
  5
103
100
AcDbEntity
  8
Layer_1
 62
7
100
AcDbSpline
 70
8
 71
3
 72
8
 73
4
 74
0
 40
0
 40
0
 40
0
 40
0
 40
1
 40
1
 40
1
 40
1
 10
3.003571
 20
11.113852
 30
0.0
 10
4.840527
 20
12.174419
 30
0.0
 10
7.103751
 20
12.174419
 30
0.0
 10
8.940707
 20
11.113852
 30
0.0
  0
SPLINE
  5
104
100
AcDbEntity
  8
Layer_1
 62
7
100
AcDbSpline
 70
8
 71
3
 72
8
 73
4
 74
0
 40
0
 40
0
 40
0
 40
0
 40
1
 40
1
 40
1
 40
1
 10
8.940707
 20
11.113852
 30
0.0
 10
10.777663
 20
10.053285
 30
0.0
 10
11.909275
 20
8.093275
 30
0.0
 10
11.909275
 20
5.972141
 30
0.0
  0
SPLINE
  5
105
100
AcDbEntity
  8
Layer_1
 62
7
100
AcDbSpline
 70
8
 71
3
 72
8
 73
4
 74
0
 40
0
 40
0
 40
0
 40
0
 40
1
 40
1
 40
1
 40
1
 10
6.434826
 20
3.042708
 30
0.0
 10
6.434826
 20
2.865414
 30
0.0
 10
6.340241
 20
2.701588
 30
0.0
 10
6.186700
 20
2.612940
 30
0.0
  0
SPLINE
  5
106
100
AcDbEntity
  8
Layer_1
 62
7
100
AcDbSpline
 70
8
 71
3
 72
8
 73
4
 74
0
 40
0
 40
0
 40
0
 40
0
 40
1
 40
1
 40
1
 40
1
 10
6.186700
 20
2.612940
 30
0.0
 10
6.033158
 20
2.524293
 30
0.0
 10
5.843988
 20
2.524293
 30
0.0
 10
5.690446
 20
2.612940
 30
0.0
  0
SPLINE
  5
107
100
AcDbEntity
  8
Layer_1
 62
7
100
AcDbSpline
 70
8
 71
3
 72
8
 73
4
 74
0
 40
0
 40
0
 40
0
 40
0
 40
1
 40
1
 40
1
 40
1
 10
5.690446
 20
2.612940
 30
0.0
 10
5.536905
 20
2.701588
 30
0.0
 10
5.442320
 20
2.865414
 30
0.0
 10
5.442320
 20
3.042708
 30
0.0
  0
SPLINE
  5
108
100
AcDbEntity
  8
Layer_1
 62
7
100
AcDbSpline
 70
8
 71
3
 72
8
 73
4
 74
0
 40
0
 40
0
 40
0
 40
0
 40
1
 40
1
 40
1
 40
1
 10
5.442320
 20
3.042708
 30
0.0
 10
5.442320
 20
3.316781
 30
0.0
 10
5.664500
 20
3.538962
 30
0.0
 10
5.938573
 20
3.538962
 30
0.0
  0
SPLINE
  5
109
100
AcDbEntity
  8
Layer_1
 62
7
100
AcDbSpline
 70
8
 71
3
 72
8
 73
4
 74
0
 40
0
 40
0
 40
0
 40
0
 40
1
 40
1
 40
1
 40
1
 10
5.938573
 20
3.538962
 30
0.0
 10
6.212646
 20
3.538962
 30
0.0
 10
6.434826
 20
3.316781
 30
0.0
 10
6.434826
 20
3.042708
 30
0.0
  0
LWPOLYLINE
  5
10a
100
AcDbEntity
  8
Layer_1
 62
7
100
AcDbPolyline
 90
1
 70
1
 10
11.909275
 20
5.972141
 30
0.0
  0
SPLINE
  5
10b
100
AcDbEntity
  8
Layer_1
 62
7
100
AcDbSpline
 70
8
 71
3
 72
8
 73
4
 74
0
 40
0
 40
0
 40
0
 40
0
 40
1
 40
1
 40
1
 40
1
 10
6.434811
 20
8.863542
 30
0.0
 10
6.434811
 20
8.686247
 30
0.0
 10
6.340225
 20
8.522421
 30
0.0
 10
6.186684
 20
8.433774
 30
0.0
  0
SPLINE
  5
10c
100
AcDbEntity
  8
Layer_1
 62
7
100
AcDbSpline
 70
8
 71
3
 72
8
 73
4
 74
0
 40
0
 40
0
 40
0
 40
0
 40
1
 40
1
 40
1
 40
1
 10
6.186684
 20
8.433774
 30
0.0
 10
6.033143
 20
8.345127
 30
0.0
 10
5.843972
 20
8.345127
 30
0.0
 10
5.690431
 20
8.433774
 30
0.0
  0
SPLINE
  5
10d
100
AcDbEntity
  8
Layer_1
 62
7
100
AcDbSpline
 70
8
 71
3
 72
8
 73
4
 74
0
 40
0
 40
0
 40
0
 40
0
 40
1
 40
1
 40
1
 40
1
 10
5.690431
 20
8.433774
 30
0.0
 10
5.536890
 20
8.522421
 30
0.0
 10
5.442304
 20
8.686247
 30
0.0
 10
5.442304
 20
8.863542
 30
0.0
  0
SPLINE
  5
10e
100
AcDbEntity
  8
Layer_1
 62
7
100
AcDbSpline
 70
8
 71
3
 72
8
 73
4
 74
0
 40
0
 40
0
 40
0
 40
0
 40
1
 40
1
 40
1
 40
1
 10
5.442304
 20
8.863542
 30
0.0
 10
5.442304
 20
9.040836
 30
0.0
 10
5.536890
 20
9.204662
 30
0.0
 10
5.690431
 20
9.293310
 30
0.0
  0
SPLINE
  5
10f
100
AcDbEntity
  8
Layer_1
 62
7
100
AcDbSpline
 70
8
 71
3
 72
8
 73
4
 74
0
 40
0
 40
0
 40
0
 40
0
 40
1
 40
1
 40
1
 40
1
 10
5.690431
 20
9.293310
 30
0.0
 10
5.843972
 20
9.381957
 30
0.0
 10
6.033143
 20
9.381957
 30
0.0
 10
6.186684
 20
9.293310
 30
0.0
  0
SPLINE
  5
110
100
AcDbEntity
  8
Layer_1
 62
7
100
AcDbSpline
 70
8
 71
3
 72
8
 73
4
 74
0
 40
0
 40
0
 40
0
 40
0
 40
1
 40
1
 40
1
 40
1
 10
6.186684
 20
9.293310
 30
0.0
 10
6.340225
 20
9.204662
 30
0.0
 10
6.434811
 20
9.040836
 30
0.0
 10
6.434811
 20
8.863542
 30
0.0
  0
LWPOLYLINE
  5
111
100
AcDbEntity
  8
Layer_1
 62
7
100
AcDbPolyline
 90
1
 70
1
 10
6.434826
 20
3.042708
 30
0.0
  0
SPLINE
  5
112
100
AcDbEntity
  8
Layer_1
 62
7
100
AcDbSpline
 70
8
 71
3
 72
8
 73
4
 74
0
 40
0
 40
0
 40
0
 40
0
 40
1
 40
1
 40
1
 40
1
 10
8.186150
 20
3.197066
 30
0.0
 10
8.186150
 20
3.143975
 30
0.0
 10
8.143111
 20
3.100936
 30
0.0
 10
8.090020
 20
3.100936
 30
0.0
  0
SPLINE
  5
113
100
AcDbEntity
  8
Layer_1
 62
7
100
AcDbSpline
 70
8
 71
3
 72
8
 73
4
 74
0
 40
0
 40
0
 40
0
 40
0
 40
1
 40
1
 40
1
 40
1
 10
8.090020
 20
3.100936
 30
0.0
 10
8.036929
 20
3.100936
 30
0.0
 10
7.993890
 20
3.143975
 30
0.0
 10
7.993890
 20
3.197066
 30
0.0
  0
SPLINE
  5
114
100
AcDbEntity
  8
Layer_1
 62
7
100
AcDbSpline
 70
8
 71
3
 72
8
 73
4
 74
0
 40
0
 40
0
 40
0
 40
0
 40
1
 40
1
 40
1
 40
1
 10
7.993890
 20
3.197066
 30
0.0
 10
7.993890
 20
3.231410
 30
0.0
 10
8.012212
 20
3.263145
 30
0.0
 10
8.041955
 20
3.280317
 30
0.0
  0
SPLINE
  5
115
100
AcDbEntity
  8
Layer_1
 62
7
100
AcDbSpline
 70
8
 71
3
 72
8
 73
4
 74
0
 40
0
 40
0
 40
0
 40
0
 40
1
 40
1
 40
1
 40
1
 10
8.041955
 20
3.280317
 30
0.0
 10
8.071698
 20
3.297489
 30
0.0
 10
8.108342
 20
3.297489
 30
0.0
 10
8.138085
 20
3.280317
 30
0.0
  0
SPLINE
  5
116
100
AcDbEntity
  8
Layer_1
 62
7
100
AcDbSpline
 70
8
 71
3
 72
8
 73
4
 74
0
 40
0
 40
0
 40
0
 40
0
 40
1
 40
1
 40
1
 40
1
 10
8.138085
 20
3.280317
 30
0.0
 10
8.167828
 20
3.263145
 30
0.0
 10
8.186150
 20
3.231410
 30
0.0
 10
8.186150
 20
3.197066
 30
0.0
  0
LWPOLYLINE
  5
117
100
AcDbEntity
  8
Layer_1
 62
7
100
AcDbPolyline
 90
1
 70
1
 10
6.434811
 20
8.863542
 30
0.0
  0
SPLINE
  5
118
100
AcDbEntity
  8
Layer_1
 62
7
100
AcDbSpline
 70
8
 71
3
 72
8
 73
4
 74
0
 40
0
 40
0
 40
0
 40
0
 40
1
 40
1
 40
1
 40
1
 10
9.009182
 20
7.025428
 30
0.0
 10
9.009182
 20
6.991084
 30
0.0
 10
8.990860
 20
6.959349
 30
0.0
 10
8.961117
 20
6.942177
 30
0.0
  0
SPLINE
  5
119
100
AcDbEntity
  8
Layer_1
 62
7
100
AcDbSpline
 70
8
 71
3
 72
8
 73
4
 74
0
 40
0
 40
0
 40
0
 40
0
 40
1
 40
1
 40
1
 40
1
 10
8.961117
 20
6.942177
 30
0.0
 10
8.931374
 20
6.925005
 30
0.0
 10
8.894730
 20
6.925005
 30
0.0
 10
8.864987
 20
6.942177
 30
0.0
  0
SPLINE
  5
11a
100
AcDbEntity
  8
Layer_1
 62
7
100
AcDbSpline
 70
8
 71
3
 72
8
 73
4
 74
0
 40
0
 40
0
 40
0
 40
0
 40
1
 40
1
 40
1
 40
1
 10
8.864987
 20
6.942177
 30
0.0
 10
8.835244
 20
6.959349
 30
0.0
 10
8.816922
 20
6.991084
 30
0.0
 10
8.816922
 20
7.025428
 30
0.0
  0
SPLINE
  5
11b
100
AcDbEntity
  8
Layer_1
 62
7
100
AcDbSpline
 70
8
 71
3
 72
8
 73
4
 74
0
 40
0
 40
0
 40
0
 40
0
 40
1
 40
1
 40
1
 40
1
 10
8.816922
 20
7.025428
 30
0.0
 10
8.816922
 20
7.059772
 30
0.0
 10
8.835244
 20
7.091507
 30
0.0
 10
8.864987
 20
7.108679
 30
0.0
  0
SPLINE
  5
11c
100
AcDbEntity
  8
Layer_1
 62
7
100
AcDbSpline
 70
8
 71
3
 72
8
 73
4
 74
0
 40
0
 40
0
 40
0
 40
0
 40
1
 40
1
 40
1
 40
1
 10
8.864987
 20
7.108679
 30
0.0
 10
8.894730
 20
7.125851
 30
0.0
 10
8.931374
 20
7.125851
 30
0.0
 10
8.961117
 20
7.108679
 30
0.0
  0
SPLINE
  5
11d
100
AcDbEntity
  8
Layer_1
 62
7
100
AcDbSpline
 70
8
 71
3
 72
8
 73
4
 74
0
 40
0
 40
0
 40
0
 40
0
 40
1
 40
1
 40
1
 40
1
 10
8.961117
 20
7.108679
 30
0.0
 10
8.990860
 20
7.091507
 30
0.0
 10
9.009182
 20
7.059772
 30
0.0
 10
9.009182
 20
7.025428
 30
0.0
  0
LWPOLYLINE
  5
11e
100
AcDbEntity
  8
Layer_1
 62
7
100
AcDbPolyline
 90
1
 70
1
 10
8.186150
 20
3.197066
 30
0.0
  0
SPLINE
  5
11f
100
AcDbEntity
  8
Layer_1
 62
7
100
AcDbSpline
 70
8
 71
3
 72
8
 73
4
 74
0
 40
0
 40
0
 40
0
 40
0
 40
1
 40
1
 40
1
 40
1
 10
8.680536
 20
7.937500
 30
0.0
 10
8.680536
 20
7.903156
 30
0.0
 10
8.662214
 20
7.871421
 30
0.0
 10
8.632471
 20
7.854249
 30
0.0
  0
SPLINE
  5
120
100
AcDbEntity
  8
Layer_1
 62
7
100
AcDbSpline
 70
8
 71
3
 72
8
 73
4
 74
0
 40
0
 40
0
 40
0
 40
0
 40
1
 40
1
 40
1
 40
1
 10
8.632471
 20
7.854249
 30
0.0
 10
8.602729
 20
7.837077
 30
0.0
 10
8.566084
 20
7.837077
 30
0.0
 10
8.536341
 20
7.854249
 30
0.0
  0
SPLINE
  5
121
100
AcDbEntity
  8
Layer_1
 62
7
100
AcDbSpline
 70
8
 71
3
 72
8
 73
4
 74
0
 40
0
 40
0
 40
0
 40
0
 40
1
 40
1
 40
1
 40
1
 10
8.536341
 20
7.854249
 30
0.0
 10
8.506599
 20
7.871421
 30
0.0
 10
8.488276
 20
7.903156
 30
0.0
 10
8.488276
 20
7.937500
 30
0.0
  0
SPLINE
  5
122
100
AcDbEntity
  8
Layer_1
 62
7
100
AcDbSpline
 70
8
 71
3
 72
8
 73
4
 74
0
 40
0
 40
0
 40
0
 40
0
 40
1
 40
1
 40
1
 40
1
 10
8.488276
 20
7.937500
 30
0.0
 10
8.488276
 20
7.971844
 30
0.0
 10
8.506599
 20
8.003579
 30
0.0
 10
8.536341
 20
8.020751
 30
0.0
  0
SPLINE
  5
123
100
AcDbEntity
  8
Layer_1
 62
7
100
AcDbSpline
 70
8
 71
3
 72
8
 73
4
 74
0
 40
0
 40
0
 40
0
 40
0
 40
1
 40
1
 40
1
 40
1
 10
8.536341
 20
8.020751
 30
0.0
 10
8.566084
 20
8.037923
 30
0.0
 10
8.602729
 20
8.037923
 30
0.0
 10
8.632471
 20
8.020751
 30
0.0
  0
SPLINE
  5
124
100
AcDbEntity
  8
Layer_1
 62
7
100
AcDbSpline
 70
8
 71
3
 72
8
 73
4
 74
0
 40
0
 40
0
 40
0
 40
0
 40
1
 40
1
 40
1
 40
1
 10
8.632471
 20
8.020751
 30
0.0
 10
8.662214
 20
8.003579
 30
0.0
 10
8.680536
 20
7.971844
 30
0.0
 10
8.680536
 20
7.937500
 30
0.0
  0
LWPOLYLINE
  5
125
100
AcDbEntity
  8
Layer_1
 62
7
100
AcDbPolyline
 90
1
 70
1
 10
9.009182
 20
7.025428
 30
0.0
  0
SPLINE
  5
126
100
AcDbEntity
  8
Layer_1
 62
7
100
AcDbSpline
 70
8
 71
3
 72
8
 73
4
 74
0
 40
0
 40
0
 40
0
 40
0
 40
1
 40
1
 40
1
 40
1
 10
9.345119
 20
4.806254
 30
0.0
 10
9.345119
 20
4.753163
 30
0.0
 10
9.302080
 20
4.710124
 30
0.0
 10
9.248989
 20
4.710124
 30
0.0
  0
SPLINE
  5
127
100
AcDbEntity
  8
Layer_1
 62
7
100
AcDbSpline
 70
8
 71
3
 72
8
 73
4
 74
0
 40
0
 40
0
 40
0
 40
0
 40
1
 40
1
 40
1
 40
1
 10
9.248989
 20
4.710124
 30
0.0
 10
9.195898
 20
4.710124
 30
0.0
 10
9.152859
 20
4.753163
 30
0.0
 10
9.152859
 20
4.806254
 30
0.0
  0
SPLINE
  5
128
100
AcDbEntity
  8
Layer_1
 62
7
100
AcDbSpline
 70
8
 71
3
 72
8
 73
4
 74
0
 40
0
 40
0
 40
0
 40
0
 40
1
 40
1
 40
1
 40
1
 10
9.152859
 20
4.806254
 30
0.0
 10
9.152859
 20
4.840598
 30
0.0
 10
9.171182
 20
4.872333
 30
0.0
 10
9.200924
 20
4.889505
 30
0.0
  0
SPLINE
  5
129
100
AcDbEntity
  8
Layer_1
 62
7
100
AcDbSpline
 70
8
 71
3
 72
8
 73
4
 74
0
 40
0
 40
0
 40
0
 40
0
 40
1
 40
1
 40
1
 40
1
 10
9.200924
 20
4.889505
 30
0.0
 10
9.230667
 20
4.906677
 30
0.0
 10
9.267312
 20
4.906677
 30
0.0
 10
9.297054
 20
4.889505
 30
0.0
  0
SPLINE
  5
12a
100
AcDbEntity
  8
Layer_1
 62
7
100
AcDbSpline
 70
8
 71
3
 72
8
 73
4
 74
0
 40
0
 40
0
 40
0
 40
0
 40
1
 40
1
 40
1
 40
1
 10
9.297054
 20
4.889505
 30
0.0
 10
9.326797
 20
4.872333
 30
0.0
 10
9.345119
 20
4.840598
 30
0.0
 10
9.345119
 20
4.806254
 30
0.0
  0
LWPOLYLINE
  5
12b
100
AcDbEntity
  8
Layer_1
 62
7
100
AcDbPolyline
 90
1
 70
1
 10
8.680536
 20
7.937500
 30
0.0
  0
SPLINE
  5
12c
100
AcDbEntity
  8
Layer_1
 62
7
100
AcDbSpline
 70
8
 71
3
 72
8
 73
4
 74
0
 40
0
 40
0
 40
0
 40
0
 40
1
 40
1
 40
1
 40
1
 10
9.209703
 20
6.482292
 30
0.0
 10
9.209703
 20
6.447948
 30
0.0
 10
9.191381
 20
6.416213
 30
0.0
 10
9.161638
 20
6.399041
 30
0.0
  0
SPLINE
  5
12d
100
AcDbEntity
  8
Layer_1
 62
7
100
AcDbSpline
 70
8
 71
3
 72
8
 73
4
 74
0
 40
0
 40
0
 40
0
 40
0
 40
1
 40
1
 40
1
 40
1
 10
9.161638
 20
6.399041
 30
0.0
 10
9.131895
 20
6.381869
 30
0.0
 10
9.095251
 20
6.381869
 30
0.0
 10
9.065508
 20
6.399041
 30
0.0
  0
SPLINE
  5
12e
100
AcDbEntity
  8
Layer_1
 62
7
100
AcDbSpline
 70
8
 71
3
 72
8
 73
4
 74
0
 40
0
 40
0
 40
0
 40
0
 40
1
 40
1
 40
1
 40
1
 10
9.065508
 20
6.399041
 30
0.0
 10
9.035765
 20
6.416213
 30
0.0
 10
9.017443
 20
6.447948
 30
0.0
 10
9.017443
 20
6.482292
 30
0.0
  0
SPLINE
  5
12f
100
AcDbEntity
  8
Layer_1
 62
7
100
AcDbSpline
 70
8
 71
3
 72
8
 73
4
 74
0
 40
0
 40
0
 40
0
 40
0
 40
1
 40
1
 40
1
 40
1
 10
9.017443
 20
6.482292
 30
0.0
 10
9.017443
 20
6.516636
 30
0.0
 10
9.035765
 20
6.548371
 30
0.0
 10
9.065508
 20
6.565543
 30
0.0
  0
SPLINE
  5
130
100
AcDbEntity
  8
Layer_1
 62
7
100
AcDbSpline
 70
8
 71
3
 72
8
 73
4
 74
0
 40
0
 40
0
 40
0
 40
0
 40
1
 40
1
 40
1
 40
1
 10
9.065508
 20
6.565543
 30
0.0
 10
9.095251
 20
6.582715
 30
0.0
 10
9.131895
 20
6.582715
 30
0.0
 10
9.161638
 20
6.565543
 30
0.0
  0
SPLINE
  5
131
100
AcDbEntity
  8
Layer_1
 62
7
100
AcDbSpline
 70
8
 71
3
 72
8
 73
4
 74
0
 40
0
 40
0
 40
0
 40
0
 40
1
 40
1
 40
1
 40
1
 10
9.161638
 20
6.565543
 30
0.0
 10
9.191381
 20
6.548371
 30
0.0
 10
9.209703
 20
6.516636
 30
0.0
 10
9.209703
 20
6.482292
 30
0.0
  0
LWPOLYLINE
  5
132
100
AcDbEntity
  8
Layer_1
 62
7
100
AcDbPolyline
 90
1
 70
1
 10
9.345119
 20
4.806254
 30
0.0
  0
SPLINE
  5
133
100
AcDbEntity
  8
Layer_1
 62
4
100
AcDbSpline
 70
8
 71
3
 72
8
 73
4
 74
0
 40
0
 40
0
 40
0
 40
0
 40
1
 40
1
 40
1
 40
1
 10
9.654596
 20
5.972141
 30
0.0
 10
9.654596
 20
3.938376
 30
0.0
 10
8.005904
 20
2.289684
 30
0.0
 10
5.972139
 20
2.289684
 30
0.0
  0
SPLINE
  5
134
100
AcDbEntity
  8
Layer_1
 62
4
100
AcDbSpline
 70
8
 71
3
 72
8
 73
4
 74
0
 40
0
 40
0
 40
0
 40
0
 40
1
 40
1
 40
1
 40
1
 10
5.972139
 20
2.289684
 30
0.0
 10
3.938374
 20
2.289684
 30
0.0
 10
2.289682
 20
3.938376
 30
0.0
 10
2.289682
 20
5.972141
 30
0.0
  0
SPLINE
  5
135
100
AcDbEntity
  8
Layer_1
 62
4
100
AcDbSpline
 70
8
 71
3
 72
8
 73
4
 74
0
 40
0
 40
0
 40
0
 40
0
 40
1
 40
1
 40
1
 40
1
 10
2.289682
 20
5.972141
 30
0.0
 10
2.289682
 20
7.287756
 30
0.0
 10
2.991554
 20
8.503434
 30
0.0
 10
4.130910
 20
9.161242
 30
0.0
  0
SPLINE
  5
136
100
AcDbEntity
  8
Layer_1
 62
4
100
AcDbSpline
 70
8
 71
3
 72
8
 73
4
 74
0
 40
0
 40
0
 40
0
 40
0
 40
1
 40
1
 40
1
 40
1
 10
4.130910
 20
9.161242
 30
0.0
 10
5.270266
 20
9.819049
 30
0.0
 10
6.674011
 20
9.819049
 30
0.0
 10
7.813367
 20
9.161242
 30
0.0
  0
SPLINE
  5
137
100
AcDbEntity
  8
Layer_1
 62
4
100
AcDbSpline
 70
8
 71
3
 72
8
 73
4
 74
0
 40
0
 40
0
 40
0
 40
0
 40
1
 40
1
 40
1
 40
1
 10
7.813367
 20
9.161242
 30
0.0
 10
8.952723
 20
8.503434
 30
0.0
 10
9.654596
 20
7.287756
 30
0.0
 10
9.654596
 20
5.972141
 30
0.0
  0
LWPOLYLINE
  5
138
100
AcDbEntity
  8
Layer_1
 62
7
100
AcDbPolyline
 90
1
 70
1
 10
9.209703
 20
6.482292
 30
0.0
  0
LWPOLYLINE
  5
139
100
AcDbEntity
  8
Layer_1
 62
4
100
AcDbPolyline
 90
1
 70
1
 10
9.654596
 20
5.972141
 30
0.0
  0
ENDSEC
  0
SECTION
  2
OBJECTS
  0
DICTIONARY
  5
C
330
0
100
AcDbDictionary
  3
ACAD_GROUP
350
D
  3
ACAD_MLINESTYLE
350
17
  0
DICTIONARY
  5
D
330
C
100
AcDbDictionary
  0
DICTIONARY
  5
1A
330
C
100
AcDbDictionary
  0
DICTIONARY
  5
17
330
C
100
AcDbDictionary
  3
STANDARD
350
18
  0
DICTIONARY
  5
19
330
C
100
AcDbDictionary
  0
ENDSEC
  0
EOF
