  0
SECTION
  2
HEADER
  9
$ACADVER
  1
AC1014
  9
$HANDSEED
  5
FFFF
  9
$MEASUREMENT
 70
     1
  0
ENDSEC
  0
SECTION
  2
TABLES
  0
TABLE
  2
VPORT
  5
8
330
0
100
AcDbSymbolTable
 70
     4
  0
VPORT
  5
2E
330
8
100
AcDbSymbolTableRecord
100
AcDbViewportTableRecord
  2
*ACTIVE
 70
     0
 10
0.0
 20
0.0
 11
1.0
 21
1.0
 12
210.0
 22
148.5
 13
0.0
 23
0.0
 14
10.0
 24
10.0
 15
10.0
 25
10.0
 16
0.0
 26
0.0
 36
1.0
 17
0.0
 27
0.0
 37
0.0
 40
341.0
 41
1.24
 42
50.0
 43
0.0
 44
0.0
 50
0.0
 51
0.0
 71
     0
 72
   100
 73
     1
 74
     3
 75
     0
 76
     0
 77
     0
 78
     0
  0
ENDTAB
  0
TABLE
  2
LTYPE
  5
5
330
0
100
AcDbSymbolTable
 70
     1
  0
LTYPE
  5
14
330
5
100
AcDbSymbolTableRecord
100
AcDbLinetypeTableRecord
  2
BYBLOCK
 70
     0
  3

 72
    65
 73
     0
 40
0.0
  0
LTYPE
  5
15
330
5
100
AcDbSymbolTableRecord
100
AcDbLinetypeTableRecord
  2
BYLAYER
 70
     0
  3

 72
    65
 73
     0
 40
0.0
  0
LTYPE
  5
16
330
5
100
AcDbSymbolTableRecord
100
AcDbLinetypeTableRecord
  2
CONTINUOUS
 70
     0
  3
Solid line
 72
    65
 73
     0
 40
0.0
  0
ENDTAB
  0
TABLE
  2
LAYER
  5
2
100
AcDbSymbolTable
 70
2
  0
LAYER
  5
50
100
AcDbSymbolTableRecord
100
AcDbLayerTableRecord
  2
0
 70
0
  6
CONTINUOUS
  0
LAYER
  5
51
100
AcDbSymbolTableRecord
100
AcDbLayerTableRecord
  2
Layer_1
 70
0
  6
CONTINUOUS
  0
ENDTAB
  0
TABLE
  2
STYLE
  5
3
330
0
100
AcDbSymbolTable
 70
     1
  0
STYLE
  5
11
330
3
100
AcDbSymbolTableRecord
100
AcDbTextStyleTableRecord
  2
STANDARD
 70
     0
 40
0.0
 41
1.0
 50
0.0
 71
     0
 42
2.5
  3
txt
  4

  0
ENDTAB
  0
TABLE
  2
VIEW
  5
6
330
0
100
AcDbSymbolTable
 70
     0
  0
ENDTAB
  0
TABLE
  2
UCS
  5
7
330
0
100
AcDbSymbolTable
 70
     0
  0
ENDTAB
  0
TABLE
  2
APPID
  5
9
330
0
100
AcDbSymbolTable
 70
     2
  0
APPID
  5
12
330
9
100
AcDbSymbolTableRecord
100
AcDbRegAppTableRecord
  2
ACAD
 70
     0
  0
ENDTAB
  0
TABLE
  2
DIMSTYLE
  5
A
330
0
100
AcDbSymbolTable
 70
     1
  0
DIMSTYLE
105
27
330
A
100
AcDbSymbolTableRecord
100
AcDbDimStyleTableRecord
  2
ISO-25
 70
     0
  3

  4

  5

  6

  7

 40
1.0
 41
2.5
 42
0.625
 43
3.75
 44
1.25
 45
0.0
 46
0.0
 47
0.0
 48
0.0
140
2.5
141
2.5
142
0.0
143
0.03937007874016
144
1.0
145
0.0
146
1.0
147
0.625
 71
     0
 72
     0
 73
     0
 74
     0
 75
     0
 76
     0
 77
     1
 78
     8
170
     0
171
     3
172
     1
173
     0
174
     0
175
     0
176
     0
177
     0
178
     0
270
     2
271
     2
272
     2
273
     2
274
     3
340
11
275
     0
280
     0
281
     0
282
     0
283
     0
284
     8
285
     0
286
     0
287
     3
288
     0
  0
ENDTAB
  0
TABLE
  2
BLOCK_RECORD
  5
1
330
0
100
AcDbSymbolTable
 70
     1
  0
BLOCK_RECORD
  5
1F
330
1
100
AcDbSymbolTableRecord
100
AcDbBlockTableRecord
  2
*MODEL_SPACE
  0
BLOCK_RECORD
  5
1B
330
1
100
AcDbSymbolTableRecord
100
AcDbBlockTableRecord
  2
*PAPER_SPACE
  0
ENDTAB
  0
ENDSEC
  0
SECTION
  2
BLOCKS
  0
BLOCK
  5
20
330
1F
100
AcDbEntity
  8
0
100
AcDbBlockBegin
  2
*MODEL_SPACE
 70
     0
 10
0.0
 20
0.0
 30
0.0
  3
*MODEL_SPACE
  1

  0
ENDBLK
  5
21
330
1F
100
AcDbEntity
  8
0
100
AcDbBlockEnd
  0
BLOCK
  5
1C
330
1B
100
AcDbEntity
 67
     1
  8
0
100
AcDbBlockBegin
  2
*PAPER_SPACE
  1

  0
ENDBLK
  5
1D
330
1B
100
AcDbEntity
 67
     1
  8
0
100
AcDbBlockEnd
  0
ENDSEC
  0
SECTION
  2
ENTITIES
  0
SPLINE
  5
100
100
AcDbEntity
  8
Layer_1
 62
7
100
AcDbSpline
 70
8
 71
3
 72
8
 73
4
 74
0
 40
0
 40
0
 40
0
 40
0
 40
1
 40
1
 40
1
 40
1
 10
299.670602
 20
979.900396
 30
0.0
 10
279.993857
 20
955.158123
 30
0.0
 10
258.593788
 20
941.265606
 30
0.0
 10
226.869355
 20
975.853612
 30
0.0
  0
SPLINE
  5
101
100
AcDbEntity
  8
Layer_1
 62
7
100
AcDbSpline
 70
8
 71
3
 72
8
 73
4
 74
0
 40
0
 40
0
 40
0
 40
0
 40
1
 40
1
 40
1
 40
1
 10
226.869355
 20
975.853612
 30
0.0
 10
234.259946
 20
930.770697
 30
0.0
 10
214.171062
 20
919.327547
 30
0.0
 10
180.399325
 20
920.075630
 30
0.0
  0
SPLINE
  5
102
100
AcDbEntity
  8
Layer_1
 62
7
100
AcDbSpline
 70
8
 71
3
 72
8
 73
4
 74
0
 40
0
 40
0
 40
0
 40
0
 40
1
 40
1
 40
1
 40
1
 10
180.399325
 20
920.075630
 30
0.0
 10
199.851089
 20
885.690327
 30
0.0
 10
179.276894
 20
868.455475
 30
0.0
 10
156.850892
 20
850.689683
 30
0.0
  0
SPLINE
  5
103
100
AcDbEntity
  8
Layer_1
 62
7
100
AcDbSpline
 70
8
 71
3
 72
8
 73
4
 74
0
 40
0
 40
0
 40
0
 40
0
 40
1
 40
1
 40
1
 40
1
 10
156.850892
 20
850.689683
 30
0.0
 10
167.247215
 20
842.668283
 30
0.0
 10
174.959619
 20
836.295053
 30
0.0
 10
183.067897
 20
830.563781
 30
0.0
  0
SPLINE
  5
104
100
AcDbEntity
  8
Layer_1
 62
7
100
AcDbSpline
 70
8
 71
3
 72
8
 73
4
 74
0
 40
0
 40
0
 40
0
 40
0
 40
1
 40
1
 40
1
 40
1
 10
183.067897
 20
830.563781
 30
0.0
 10
195.365301
 20
821.876346
 30
0.0
 10
198.040088
 20
813.188885
 30
0.0
 10
187.364791
 20
799.834385
 30
0.0
  0
SPLINE
  5
105
100
AcDbEntity
  8
Layer_1
 62
7
100
AcDbSpline
 70
8
 71
3
 72
8
 73
4
 74
0
 40
0
 40
0
 40
0
 40
0
 40
1
 40
1
 40
1
 40
1
 10
187.364791
 20
799.834385
 30
0.0
 10
177.731150
 20
787.775788
 30
0.0
 10
169.591522
 20
774.008908
 30
0.0
 10
162.538399
 20
759.983584
 30
0.0
  0
SPLINE
  5
106
100
AcDbEntity
  8
Layer_1
 62
7
100
AcDbSpline
 70
8
 71
3
 72
8
 73
4
 74
0
 40
0
 40
0
 40
0
 40
0
 40
1
 40
1
 40
1
 40
1
 10
162.538399
 20
759.983584
 30
0.0
 10
129.270614
 20
693.833702
 30
0.0
 10
137.003266
 20
637.121403
 30
0.0
 10
185.688925
 20
583.133914
 30
0.0
  0
SPLINE
  5
107
100
AcDbEntity
  8
Layer_1
 62
7
100
AcDbSpline
 70
8
 71
3
 72
8
 73
4
 74
0
 40
0
 40
0
 40
0
 40
0
 40
1
 40
1
 40
1
 40
1
 10
185.688925
 20
583.133914
 30
0.0
 10
189.974794
 20
578.379960
 30
0.0
 10
194.591440
 20
573.279005
 30
0.0
 10
196.872738
 20
567.371574
 30
0.0
  0
SPLINE
  5
108
100
AcDbEntity
  8
Layer_1
 62
7
100
AcDbSpline
 70
8
 71
3
 72
8
 73
4
 74
0
 40
0
 40
0
 40
0
 40
0
 40
1
 40
1
 40
1
 40
1
 10
196.872738
 20
567.371574
 30
0.0
 10
198.362104
 20
563.517733
 30
0.0
 10
197.493345
 20
556.372025
 30
0.0
 10
194.948823
 20
553.336248
 30
0.0
  0
SPLINE
  5
109
100
AcDbEntity
  8
Layer_1
 62
7
100
AcDbSpline
 70
8
 71
3
 72
8
 73
4
 74
0
 40
0
 40
0
 40
0
 40
0
 40
1
 40
1
 40
1
 40
1
 10
194.948823
 20
553.336248
 30
0.0
 10
178.757016
 20
534.028465
 30
0.0
 10
156.709383
 20
546.388264
 30
0.0
 10
142.242998
 20
561.712480
 30
0.0
  0
SPLINE
  5
10a
100
AcDbEntity
  8
Layer_1
 62
7
100
AcDbSpline
 70
8
 71
3
 72
8
 73
4
 74
0
 40
0
 40
0
 40
0
 40
0
 40
1
 40
1
 40
1
 40
1
 10
142.242998
 20
561.712480
 30
0.0
 10
142.242998
 20
561.712480
 30
0.0
 10
120.930141
 20
586.206706
 30
0.0
 10
117.112232
 20
599.493631
 30
0.0
  0
SPLINE
  5
10b
100
AcDbEntity
  8
Layer_1
 62
7
100
AcDbSpline
 70
8
 71
3
 72
8
 73
4
 74
0
 40
0
 40
0
 40
0
 40
0
 40
1
 40
1
 40
1
 40
1
 10
117.112232
 20
599.493631
 30
0.0
 10
84.703870
 20
565.291764
 30
0.0
 10
70.013012
 20
569.977746
 30
0.0
 10
34.229953
 20
584.784967
 30
0.0
  0
SPLINE
  5
10c
100
AcDbEntity
  8
Layer_1
 62
7
100
AcDbSpline
 70
8
 71
3
 72
8
 73
4
 74
0
 40
0
 40
0
 40
0
 40
0
 40
1
 40
1
 40
1
 40
1
 10
34.229953
 20
584.784967
 30
0.0
 10
37.810784
 20
570.977448
 30
0.0
 10
39.584921
 20
534.256271
 30
0.0
 10
6.881234
 20
509.476904
 30
0.0
  0
SPLINE
  5
10d
100
AcDbEntity
  8
Layer_1
 62
7
100
AcDbSpline
 70
8
 71
3
 72
8
 73
4
 74
0
 40
0
 40
0
 40
0
 40
0
 40
1
 40
1
 40
1
 40
1
 10
6.881234
 20
509.476904
 30
0.0
 10
17.943753
 20
496.903745
 30
0.0
 10
15.418476
 20
455.238194
 30
0.0
 10
3.569808
 20
447.530829
 30
0.0
  0
SPLINE
  5
10e
100
AcDbEntity
  8
Layer_1
 62
7
100
AcDbSpline
 70
8
 71
3
 72
8
 73
4
 74
0
 40
0
 40
0
 40
0
 40
0
 40
1
 40
1
 40
1
 40
1
 10
3.569808
 20
447.530829
 30
0.0
 10
27.583646
 20
440.685211
 30
0.0
 10
45.406207
 20
412.196359
 30
0.0
 10
50.010383
 20
392.609626
 30
0.0
  0
SPLINE
  5
10f
100
AcDbEntity
  8
Layer_1
 62
7
100
AcDbSpline
 70
8
 71
3
 72
8
 73
4
 74
0
 40
0
 40
0
 40
0
 40
0
 40
1
 40
1
 40
1
 40
1
 10
50.010383
 20
392.609626
 30
0.0
 10
66.856880
 20
397.411840
 30
0.0
 10
82.119446
 20
402.592752
 30
0.0
 10
97.733054
 20
405.826383
 30
0.0
  0
SPLINE
  5
110
100
AcDbEntity
  8
Layer_1
 62
7
100
AcDbSpline
 70
8
 71
3
 72
8
 73
4
 74
0
 40
0
 40
0
 40
0
 40
0
 40
1
 40
1
 40
1
 40
1
 10
97.733054
 20
405.826383
 30
0.0
 10
123.265316
 20
410.797243
 30
0.0
 10
121.808989
 20
390.114499
 30
0.0
 10
114.383717
 20
371.730799
 30
0.0
  0
SPLINE
  5
111
100
AcDbEntity
  8
Layer_1
 62
7
100
AcDbSpline
 70
8
 71
3
 72
8
 73
4
 74
0
 40
0
 40
0
 40
0
 40
0
 40
1
 40
1
 40
1
 40
1
 10
114.383717
 20
371.730799
 30
0.0
 10
113.250430
 20
368.345059
 30
0.0
 10
112.186601
 20
364.964795
 30
0.0
 10
111.186494
 20
361.589823
 30
0.0
  0
SPLINE
  5
112
100
AcDbEntity
  8
Layer_1
 62
7
100
AcDbSpline
 70
8
 71
3
 72
8
 73
4
 74
0
 40
0
 40
0
 40
0
 40
0
 40
1
 40
1
 40
1
 40
1
 10
24.172168
 20
361.589823
 30
0.0
 10
10.980043
 20
361.589823
 30
0.0
 10
0.359668
 20
350.969448
 30
0.0
 10
0.359668
 20
337.777323
 30
0.0
  0
LWPOLYLINE
  5
113
100
AcDbEntity
  8
Layer_1
 62
7
100
AcDbPolyline
 90
2
 70
0
 10
111.186494
 20
361.589823
 30
0.0
 10
24.172168
 20
361.589823
 30
0.0
  0
SPLINE
  5
114
100
AcDbEntity
  8
Layer_1
 62
7
100
AcDbSpline
 70
8
 71
3
 72
8
 73
4
 74
0
 40
0
 40
0
 40
0
 40
0
 40
1
 40
1
 40
1
 40
1
 10
0.359668
 20
100.372175
 30
0.0
 10
0.359668
 20
87.180050
 30
0.0
 10
10.980043
 20
76.559675
 30
0.0
 10
24.172168
 20
76.559675
 30
0.0
  0
LWPOLYLINE
  5
115
100
AcDbEntity
  8
Layer_1
 62
7
100
AcDbPolyline
 90
2
 70
0
 10
0.359668
 20
337.777323
 30
0.0
 10
0.359668
 20
100.372175
 30
0.0
  0
SPLINE
  5
116
100
AcDbEntity
  8
Layer_1
 62
7
100
AcDbSpline
 70
8
 71
3
 72
8
 73
4
 74
0
 40
0
 40
0
 40
0
 40
0
 40
1
 40
1
 40
1
 40
1
 10
442.415374
 20
76.559675
 30
0.0
 10
455.607499
 20
76.559675
 30
0.0
 10
466.227874
 20
87.180050
 30
0.0
 10
466.227874
 20
100.372175
 30
0.0
  0
LWPOLYLINE
  5
117
100
AcDbEntity
  8
Layer_1
 62
7
100
AcDbPolyline
 90
2
 70
0
 10
24.172168
 20
76.559675
 30
0.0
 10
442.415374
 20
76.559675
 30
0.0
  0
SPLINE
  5
118
100
AcDbEntity
  8
Layer_1
 62
7
100
AcDbSpline
 70
8
 71
3
 72
8
 73
4
 74
0
 40
0
 40
0
 40
0
 40
0
 40
1
 40
1
 40
1
 40
1
 10
466.227874
 20
337.777323
 30
0.0
 10
466.227874
 20
350.969448
 30
0.0
 10
455.607499
 20
361.589823
 30
0.0
 10
442.415374
 20
361.589823
 30
0.0
  0
LWPOLYLINE
  5
119
100
AcDbEntity
  8
Layer_1
 62
7
100
AcDbPolyline
 90
2
 70
0
 10
466.227874
 20
100.372175
 30
0.0
 10
466.227874
 20
337.777323
 30
0.0
  0
SPLINE
  5
11a
100
AcDbEntity
  8
Layer_1
 62
7
100
AcDbSpline
 70
8
 71
3
 72
8
 73
4
 74
0
 40
0
 40
0
 40
0
 40
0
 40
1
 40
1
 40
1
 40
1
 10
268.031701
 20
361.589823
 30
0.0
 10
290.047151
 20
383.384266
 30
0.0
 10
316.811713
 20
397.569161
 30
0.0
 10
344.754147
 20
410.312420
 30
0.0
  0
SPLINE
  5
11b
100
AcDbEntity
  8
Layer_1
 62
7
100
AcDbSpline
 70
8
 71
3
 72
8
 73
4
 74
0
 40
0
 40
0
 40
0
 40
0
 40
1
 40
1
 40
1
 40
1
 10
344.754147
 20
410.312420
 30
0.0
 10
368.656023
 20
421.212724
 30
0.0
 10
393.025709
 20
432.624759
 30
0.0
 10
414.178327
 20
448.438270
 30
0.0
  0
SPLINE
  5
11c
100
AcDbEntity
  8
Layer_1
 62
7
100
AcDbSpline
 70
8
 71
3
 72
8
 73
4
 74
0
 40
0
 40
0
 40
0
 40
0
 40
1
 40
1
 40
1
 40
1
 10
414.178327
 20
448.438270
 30
0.0
 10
471.849662
 20
491.559241
 30
0.0
 10
481.782781
 20
566.184071
 30
0.0
 10
438.046654
 20
625.171655
 30
0.0
  0
SPLINE
  5
11d
100
AcDbEntity
  8
Layer_1
 62
7
100
AcDbSpline
 70
8
 71
3
 72
8
 73
4
 74
0
 40
0
 40
0
 40
0
 40
0
 40
1
 40
1
 40
1
 40
1
 10
438.046654
 20
625.171655
 30
0.0
 10
425.141813
 20
642.582694
 30
0.0
 10
408.041237
 20
657.119352
 30
0.0
 10
390.972014
 20
670.116717
 30
0.0
  0
SPLINE
  5
11e
100
AcDbEntity
  8
Layer_1
 62
7
100
AcDbSpline
 70
8
 71
3
 72
8
 73
4
 74
0
 40
0
 40
0
 40
0
 40
0
 40
1
 40
1
 40
1
 40
1
 10
390.972014
 20
670.116717
 30
0.0
 10
368.707988
 20
687.066799
 30
0.0
 10
343.831519
 20
700.044849
 30
0.0
 10
321.407764
 20
716.782603
 30
0.0
  0
SPLINE
  5
11f
100
AcDbEntity
  8
Layer_1
 62
7
100
AcDbSpline
 70
8
 71
3
 72
8
 73
4
 74
0
 40
0
 40
0
 40
0
 40
0
 40
1
 40
1
 40
1
 40
1
 10
321.407764
 20
716.782603
 30
0.0
 10
292.380855
 20
738.457745
 30
0.0
 10
286.576717
 20
740.846324
 30
0.0
 10
313.126623
 20
769.201112
 30
0.0
  0
SPLINE
  5
120
100
AcDbEntity
  8
Layer_1
 62
7
100
AcDbSpline
 70
8
 71
3
 72
8
 73
4
 74
0
 40
0
 40
0
 40
0
 40
0
 40
1
 40
1
 40
1
 40
1
 10
313.126623
 20
769.201112
 30
0.0
 10
335.158530
 20
748.709185
 30
0.0
 10
342.000311
 20
744.904001
 30
0.0
 10
373.040804
 20
741.880290
 30
0.0
  0
SPLINE
  5
121
100
AcDbEntity
  8
Layer_1
 62
7
100
AcDbSpline
 70
8
 71
3
 72
8
 73
4
 74
0
 40
0
 40
0
 40
0
 40
0
 40
1
 40
1
 40
1
 40
1
 10
373.040804
 20
741.880290
 30
0.0
 10
404.951962
 20
738.774531
 30
0.0
 10
427.024112
 20
784.111282
 30
0.0
 10
463.520552
 20
776.710728
 30
0.0
  0
SPLINE
  5
122
100
AcDbEntity
  8
Layer_1
 62
7
100
AcDbSpline
 70
8
 71
3
 72
8
 73
4
 74
0
 40
0
 40
0
 40
0
 40
0
 40
1
 40
1
 40
1
 40
1
 10
463.520552
 20
776.710728
 30
0.0
 10
471.687710
 20
774.792948
 30
0.0
 10
478.513987
 20
767.471927
 30
0.0
 10
483.272306
 20
769.400078
 30
0.0
  0
SPLINE
  5
123
100
AcDbEntity
  8
Layer_1
 62
7
100
AcDbSpline
 70
8
 71
3
 72
8
 73
4
 74
0
 40
0
 40
0
 40
0
 40
0
 40
1
 40
1
 40
1
 40
1
 10
483.272306
 20
769.400078
 30
0.0
 10
494.168060
 20
773.808936
 30
0.0
 10
507.416038
 20
779.546823
 30
0.0
 10
512.028705
 20
790.400851
 30
0.0
  0
SPLINE
  5
124
100
AcDbEntity
  8
Layer_1
 62
7
100
AcDbSpline
 70
8
 71
3
 72
8
 73
4
 74
0
 40
0
 40
0
 40
0
 40
0
 40
1
 40
1
 40
1
 40
1
 10
512.028705
 20
790.400851
 30
0.0
 10
512.380018
 20
803.383320
 30
0.0
 10
511.245088
 20
817.625259
 30
0.0
 10
497.834206
 20
820.953506
 30
0.0
  0
SPLINE
  5
125
100
AcDbEntity
  8
Layer_1
 62
7
100
AcDbSpline
 70
8
 71
3
 72
8
 73
4
 74
0
 40
0
 40
0
 40
0
 40
0
 40
1
 40
1
 40
1
 40
1
 10
497.834206
 20
820.953506
 30
0.0
 10
449.160291
 20
843.341039
 30
0.0
 10
423.472160
 20
829.644671
 30
0.0
 10
410.317580
 20
894.312860
 30
0.0
  0
SPLINE
  5
126
100
AcDbEntity
  8
Layer_1
 62
7
100
AcDbSpline
 70
8
 71
3
 72
8
 73
4
 74
0
 40
0
 40
0
 40
0
 40
0
 40
1
 40
1
 40
1
 40
1
 10
410.317580
 20
894.312860
 30
0.0
 10
404.794323
 20
921.470672
 30
0.0
 10
385.635315
 20
940.312366
 30
0.0
 10
357.114634
 20
943.297474
 30
0.0
  0
SPLINE
  5
127
100
AcDbEntity
  8
Layer_1
 62
7
100
AcDbSpline
 70
8
 71
3
 72
8
 73
4
 74
0
 40
0
 40
0
 40
0
 40
0
 40
1
 40
1
 40
1
 40
1
 10
357.114634
 20
943.297474
 30
0.0
 10
353.733179
 20
943.654635
 30
0.0
 10
350.507088
 20
945.650414
 30
0.0
 10
346.266214
 20
947.238311
 30
0.0
  0
SPLINE
  5
128
100
AcDbEntity
  8
Layer_1
 62
7
100
AcDbSpline
 70
8
 71
3
 72
8
 73
4
 74
0
 40
0
 40
0
 40
0
 40
0
 40
1
 40
1
 40
1
 40
1
 10
346.266214
 20
947.238311
 30
0.0
 10
347.964813
 20
954.472998
 30
0.0
 10
349.404570
 20
960.602410
 30
0.0
 10
351.274168
 20
968.553800
 30
0.0
  0
SPLINE
  5
129
100
AcDbEntity
  8
Layer_1
 62
7
100
AcDbSpline
 70
8
 71
3
 72
8
 73
4
 74
0
 40
0
 40
0
 40
0
 40
0
 40
1
 40
1
 40
1
 40
1
 10
351.274168
 20
968.553800
 30
0.0
 10
337.491890
 20
964.871276
 30
0.0
 10
324.964795
 20
961.522104
 30
0.0
 10
310.890073
 20
957.757559
 30
0.0
  0
LWPOLYLINE
  5
12a
100
AcDbEntity
  8
Layer_1
 62
7
100
AcDbPolyline
 90
2
 70
0
 10
442.415374
 20
361.589823
 30
0.0
 10
268.031701
 20
361.589823
 30
0.0
  0
LWPOLYLINE
  5
12b
100
AcDbEntity
  8
Layer_1
 62
7
100
AcDbPolyline
 90
4
 70
0
 10
310.890073
 20
957.757559
 30
0.0
 10
310.890073
 20
979.900396
 30
0.0
 10
299.670602
 20
979.900396
 30
0.0
 10
299.670602
 20
979.900396
 30
0.0
  0
LWPOLYLINE
  5
12c
100
AcDbEntity
  8
Layer_1
 62
7
100
AcDbPolyline
 90
4
 70
1
 10
26.388707
 20
508.162544
 30
0.0
 10
444.260512
 20
508.162544
 30
0.0
 10
444.260512
 20
490.473007
 30
0.0
 10
26.388707
 20
490.473007
 30
0.0
  0
LWPOLYLINE
  5
12d
100
AcDbEntity
  8
Layer_1
 62
7
100
AcDbPolyline
 90
4
 70
1
 10
201.836872
 20
808.013608
 30
0.0
 10
504.273481
 20
808.013608
 30
0.0
 10
504.273481
 20
790.298822
 30
0.0
 10
201.836872
 20
790.298822
 30
0.0
  0
SPLINE
  5
12e
100
AcDbEntity
  8
Layer_1
 62
1
100
AcDbSpline
 70
8
 71
3
 72
8
 73
4
 74
0
 40
0
 40
0
 40
0
 40
0
 40
1
 40
1
 40
1
 40
1
 10
277.135934
 20
77.375994
 30
0.0
 10
214.776005
 20
90.170635
 30
0.0
 10
165.104934
 20
124.331518
 30
0.0
 10
130.903483
 20
181.651566
 30
0.0
  0
SPLINE
  5
12f
100
AcDbEntity
  8
Layer_1
 62
1
100
AcDbSpline
 70
8
 71
3
 72
8
 73
4
 74
0
 40
0
 40
0
 40
0
 40
0
 40
1
 40
1
 40
1
 40
1
 10
130.903483
 20
181.651566
 30
0.0
 10
95.235162
 20
241.435493
 30
0.0
 10
92.148438
 20
305.587268
 30
0.0
 10
114.288716
 20
371.732308
 30
0.0
  0
SPLINE
  5
130
100
AcDbEntity
  8
Layer_1
 62
1
100
AcDbSpline
 70
8
 71
3
 72
8
 73
4
 74
0
 40
0
 40
0
 40
0
 40
0
 40
1
 40
1
 40
1
 40
1
 10
114.288716
 20
371.732308
 30
0.0
 10
121.713987
 20
390.116007
 30
0.0
 10
123.170212
 20
410.798857
 30
0.0
 10
97.637949
 20
405.828024
 30
0.0
  0
SPLINE
  5
131
100
AcDbEntity
  8
Layer_1
 62
1
100
AcDbSpline
 70
8
 71
3
 72
8
 73
4
 74
0
 40
0
 40
0
 40
0
 40
0
 40
1
 40
1
 40
1
 40
1
 10
97.637949
 20
405.828024
 30
0.0
 10
82.024342
 20
402.594366
 30
0.0
 10
66.761701
 20
397.413268
 30
0.0
 10
49.915199
 20
392.611054
 30
0.0
  0
SPLINE
  5
132
100
AcDbEntity
  8
Layer_1
 62
1
100
AcDbSpline
 70
8
 71
3
 72
8
 73
4
 74
0
 40
0
 40
0
 40
0
 40
0
 40
1
 40
1
 40
1
 40
1
 10
49.915199
 20
392.611054
 30
0.0
 10
45.311026
 20
412.197815
 30
0.0
 10
27.488692
 20
440.686825
 30
0.0
 10
3.474845
 20
447.532443
 30
0.0
  0
SPLINE
  5
133
100
AcDbEntity
  8
Layer_1
 62
1
100
AcDbSpline
 70
8
 71
3
 72
8
 73
4
 74
0
 40
0
 40
0
 40
0
 40
0
 40
1
 40
1
 40
1
 40
1
 10
3.474845
 20
447.532443
 30
0.0
 10
15.323521
 20
455.239834
 30
0.0
 10
17.849075
 20
496.905412
 30
0.0
 10
6.786555
 20
509.478571
 30
0.0
  0
SPLINE
  5
134
100
AcDbEntity
  8
Layer_1
 62
1
100
AcDbSpline
 70
8
 71
3
 72
8
 73
4
 74
0
 40
0
 40
0
 40
0
 40
0
 40
1
 40
1
 40
1
 40
1
 10
6.786555
 20
509.478571
 30
0.0
 10
39.490245
 20
534.257911
 30
0.0
 10
37.715949
 20
570.978877
 30
0.0
 10
34.135105
 20
584.786423
 30
0.0
  0
SPLINE
  5
135
100
AcDbEntity
  8
Layer_1
 62
1
100
AcDbSpline
 70
8
 71
3
 72
8
 73
4
 74
0
 40
0
 40
0
 40
0
 40
0
 40
1
 40
1
 40
1
 40
1
 10
34.135105
 20
584.786423
 30
0.0
 10
69.918170
 20
569.979201
 30
0.0
 10
84.608847
 20
565.293457
 30
0.0
 10
117.017210
 20
599.495324
 30
0.0
  0
SPLINE
  5
136
100
AcDbEntity
  8
Layer_1
 62
1
100
AcDbSpline
 70
8
 71
3
 72
8
 73
4
 74
0
 40
0
 40
0
 40
0
 40
0
 40
1
 40
1
 40
1
 40
1
 10
117.017210
 20
599.495324
 30
0.0
 10
120.835118
 20
586.208399
 30
0.0
 10
142.147867
 20
561.713989
 30
0.0
 10
142.147867
 20
561.713989
 30
0.0
  0
SPLINE
  5
137
100
AcDbEntity
  8
Layer_1
 62
1
100
AcDbSpline
 70
8
 71
3
 72
8
 73
4
 74
0
 40
0
 40
0
 40
0
 40
0
 40
1
 40
1
 40
1
 40
1
 10
142.147867
 20
561.713989
 30
0.0
 10
156.614252
 20
546.389772
 30
0.0
 10
178.662227
 20
534.030185
 30
0.0
 10
194.854034
 20
553.337968
 30
0.0
  0
SPLINE
  5
138
100
AcDbEntity
  8
Layer_1
 62
1
100
AcDbSpline
 70
8
 71
3
 72
8
 73
4
 74
0
 40
0
 40
0
 40
0
 40
0
 40
1
 40
1
 40
1
 40
1
 10
194.854034
 20
553.337968
 30
0.0
 10
197.398555
 20
556.373744
 30
0.0
 10
198.266979
 20
563.519135
 30
0.0
 10
196.777613
 20
567.372976
 30
0.0
  0
SPLINE
  5
139
100
AcDbEntity
  8
Layer_1
 62
1
100
AcDbSpline
 70
8
 71
3
 72
8
 73
4
 74
0
 40
0
 40
0
 40
0
 40
0
 40
1
 40
1
 40
1
 40
1
 10
196.777613
 20
567.372976
 30
0.0
 10
194.496314
 20
573.280408
 30
0.0
 10
189.879727
 20
578.381865
 30
0.0
 10
185.593858
 20
583.135819
 30
0.0
  0
SPLINE
  5
13a
100
AcDbEntity
  8
Layer_1
 62
1
100
AcDbSpline
 70
8
 71
3
 72
8
 73
4
 74
0
 40
0
 40
0
 40
0
 40
0
 40
1
 40
1
 40
1
 40
1
 10
185.593858
 20
583.135819
 30
0.0
 10
136.908199
 20
637.123281
 30
0.0
 10
129.175637
 20
693.835237
 30
0.0
 10
162.443422
 20
759.985145
 30
0.0
  0
SPLINE
  5
13b
100
AcDbEntity
  8
Layer_1
 62
1
100
AcDbSpline
 70
8
 71
3
 72
8
 73
4
 74
0
 40
0
 40
0
 40
0
 40
0
 40
1
 40
1
 40
1
 40
1
 10
162.443422
 20
759.985145
 30
0.0
 10
169.496544
 20
774.010443
 30
0.0
 10
177.636318
 20
787.777640
 30
0.0
 10
187.269959
 20
799.836237
 30
0.0
  0
SPLINE
  5
13c
100
AcDbEntity
  8
Layer_1
 62
1
100
AcDbSpline
 70
8
 71
3
 72
8
 73
4
 74
0
 40
0
 40
0
 40
0
 40
0
 40
1
 40
1
 40
1
 40
1
 10
187.269959
 20
799.836237
 30
0.0
 10
197.945256
 20
813.190710
 30
0.0
 10
195.270247
 20
821.878145
 30
0.0
 10
182.972842
 20
830.565580
 30
0.0
  0
SPLINE
  5
13d
100
AcDbEntity
  8
Layer_1
 62
1
100
AcDbSpline
 70
8
 71
3
 72
8
 73
4
 74
0
 40
0
 40
0
 40
0
 40
0
 40
1
 40
1
 40
1
 40
1
 10
182.972842
 20
830.565580
 30
0.0
 10
174.864564
 20
836.296852
 30
0.0
 10
167.152251
 20
842.670030
 30
0.0
 10
156.755928
 20
850.691429
 30
0.0
  0
SPLINE
  5
13e
100
AcDbEntity
  8
Layer_1
 62
1
100
AcDbSpline
 70
8
 71
3
 72
8
 73
4
 74
0
 40
0
 40
0
 40
0
 40
0
 40
1
 40
1
 40
1
 40
1
 10
156.755928
 20
850.691429
 30
0.0
 10
179.181929
 20
868.457221
 30
0.0
 10
199.756345
 20
885.692073
 30
0.0
 10
180.304580
 20
920.077376
 30
0.0
  0
SPLINE
  5
13f
100
AcDbEntity
  8
Layer_1
 62
1
100
AcDbSpline
 70
8
 71
3
 72
8
 73
4
 74
0
 40
0
 40
0
 40
0
 40
0
 40
1
 40
1
 40
1
 40
1
 10
180.304580
 20
920.077376
 30
0.0
 10
214.076317
 20
919.329267
 30
0.0
 10
234.164785
 20
930.772496
 30
0.0
 10
226.774195
 20
975.855406
 30
0.0
  0
SPLINE
  5
140
100
AcDbEntity
  8
Layer_1
 62
1
100
AcDbSpline
 70
8
 71
3
 72
8
 73
4
 74
0
 40
0
 40
0
 40
0
 40
0
 40
1
 40
1
 40
1
 40
1
 10
226.774195
 20
975.855406
 30
0.0
 10
258.498628
 20
941.267432
 30
0.0
 10
279.898713
 20
955.160015
 30
0.0
 10
299.575458
 20
979.902287
 30
0.0
  0
LWPOLYLINE
  5
141
100
AcDbEntity
  8
Layer_1
 62
7
100
AcDbPolyline
 90
4
 70
1
 10
201.646753
 20
808.661467
 30
0.0
 10
201.646753
 20
918.920806
 30
0.0
 10
219.418688
 20
918.920806
 30
0.0
 10
219.418688
 20
808.661467
 30
0.0
  0
SPLINE
  5
142
100
AcDbEntity
  8
Layer_1
 62
1
100
AcDbSpline
 70
8
 71
3
 72
8
 73
4
 74
0
 40
0
 40
0
 40
0
 40
0
 40
1
 40
1
 40
1
 40
1
 10
310.795220
 20
957.759017
 30
0.0
 10
324.869942
 20
961.523562
 30
0.0
 10
337.396825
 20
964.873028
 30
0.0
 10
351.179104
 20
968.555552
 30
0.0
  0
SPLINE
  5
143
100
AcDbEntity
  8
Layer_1
 62
1
100
AcDbSpline
 70
8
 71
3
 72
8
 73
4
 74
0
 40
0
 40
0
 40
0
 40
0
 40
1
 40
1
 40
1
 40
1
 10
351.179104
 20
968.555552
 30
0.0
 10
349.309505
 20
960.604161
 30
0.0
 10
347.869642
 20
954.474718
 30
0.0
 10
346.171044
 20
947.240004
 30
0.0
  0
SPLINE
  5
144
100
AcDbEntity
  8
Layer_1
 62
1
100
AcDbSpline
 70
8
 71
3
 72
8
 73
4
 74
0
 40
0
 40
0
 40
0
 40
0
 40
1
 40
1
 40
1
 40
1
 10
346.171044
 20
947.240004
 30
0.0
 10
350.411918
 20
945.652134
 30
0.0
 10
353.638141
 20
943.656461
 30
0.0
 10
357.019595
 20
943.299273
 30
0.0
  0
SPLINE
  5
145
100
AcDbEntity
  8
Layer_1
 62
1
100
AcDbSpline
 70
8
 71
3
 72
8
 73
4
 74
0
 40
0
 40
0
 40
0
 40
0
 40
1
 40
1
 40
1
 40
1
 10
357.019595
 20
943.299273
 30
0.0
 10
385.540276
 20
940.314191
 30
0.0
 10
404.699576
 20
921.472154
 30
0.0
 10
410.222832
 20
894.314341
 30
0.0
  0
SPLINE
  5
146
100
AcDbEntity
  8
Layer_1
 62
1
100
AcDbSpline
 70
8
 71
3
 72
8
 73
4
 74
0
 40
0
 40
0
 40
0
 40
0
 40
1
 40
1
 40
1
 40
1
 10
410.222832
 20
894.314341
 30
0.0
 10
423.377413
 20
829.646153
 30
0.0
 10
449.065306
 20
843.342706
 30
0.0
 10
497.739220
 20
820.955173
 30
0.0
  0
SPLINE
  5
147
100
AcDbEntity
  8
Layer_1
 62
1
100
AcDbSpline
 70
8
 71
3
 72
8
 73
4
 74
0
 40
0
 40
0
 40
0
 40
0
 40
1
 40
1
 40
1
 40
1
 10
497.739220
 20
820.955173
 30
0.0
 10
511.150103
 20
817.626926
 30
0.0
 10
512.284954
 20
803.384829
 30
0.0
 10
511.933640
 20
790.402386
 30
0.0
  0
SPLINE
  5
148
100
AcDbEntity
  8
Layer_1
 62
1
100
AcDbSpline
 70
8
 71
3
 72
8
 73
4
 74
0
 40
0
 40
0
 40
0
 40
0
 40
1
 40
1
 40
1
 40
1
 10
511.933640
 20
790.402386
 30
0.0
 10
507.320973
 20
779.548357
 30
0.0
 10
494.073339
 20
773.810524
 30
0.0
 10
483.177585
 20
769.401666
 30
0.0
  0
SPLINE
  5
149
100
AcDbEntity
  8
Layer_1
 62
1
100
AcDbSpline
 70
8
 71
3
 72
8
 73
4
 74
0
 40
0
 40
0
 40
0
 40
0
 40
1
 40
1
 40
1
 40
1
 10
483.177585
 20
769.401666
 30
0.0
 10
478.419266
 20
767.473515
 30
0.0
 10
471.592857
 20
774.794694
 30
0.0
 10
463.425699
 20
776.712474
 30
0.0
  0
SPLINE
  5
14a
100
AcDbEntity
  8
Layer_1
 62
1
100
AcDbSpline
 70
8
 71
3
 72
8
 73
4
 74
0
 40
0
 40
0
 40
0
 40
0
 40
1
 40
1
 40
1
 40
1
 10
463.425699
 20
776.712474
 30
0.0
 10
426.929259
 20
784.113028
 30
0.0
 10
404.857268
 20
738.776066
 30
0.0
 10
372.946110
 20
741.881824
 30
0.0
  0
SPLINE
  5
14b
100
AcDbEntity
  8
Layer_1
 62
1
100
AcDbSpline
 70
8
 71
3
 72
8
 73
4
 74
0
 40
0
 40
0
 40
0
 40
0
 40
1
 40
1
 40
1
 40
1
 10
372.946110
 20
741.881824
 30
0.0
 10
341.905616
 20
744.905535
 30
0.0
 10
335.063544
 20
748.710879
 30
0.0
 10
313.031637
 20
769.202779
 30
0.0
  0
SPLINE
  5
14c
100
AcDbEntity
  8
Layer_1
 62
1
100
AcDbSpline
 70
8
 71
3
 72
8
 73
4
 74
0
 40
0
 40
0
 40
0
 40
0
 40
1
 40
1
 40
1
 40
1
 10
313.031637
 20
769.202779
 30
0.0
 10
286.481732
 20
740.847991
 30
0.0
 10
292.286108
 20
738.459650
 30
0.0
 10
321.313016
 20
716.784481
 30
0.0
  0
SPLINE
  5
14d
100
AcDbEntity
  8
Layer_1
 62
1
100
AcDbSpline
 70
8
 71
3
 72
8
 73
4
 74
0
 40
0
 40
0
 40
0
 40
0
 40
1
 40
1
 40
1
 40
1
 10
321.313016
 20
716.784481
 30
0.0
 10
343.736771
 20
700.046728
 30
0.0
 10
368.612790
 20
687.068677
 30
0.0
 10
390.876816
 20
670.118596
 30
0.0
  0
SPLINE
  5
14e
100
AcDbEntity
  8
Layer_1
 62
1
100
AcDbSpline
 70
8
 71
3
 72
8
 73
4
 74
0
 40
0
 40
0
 40
0
 40
0
 40
1
 40
1
 40
1
 40
1
 10
390.876816
 20
670.118596
 30
0.0
 10
407.946040
 20
657.121230
 30
0.0
 10
425.046775
 20
642.584308
 30
0.0
 10
437.951615
 20
625.173269
 30
0.0
  0
SPLINE
  5
14f
100
AcDbEntity
  8
Layer_1
 62
1
100
AcDbSpline
 70
8
 71
3
 72
8
 73
4
 74
0
 40
0
 40
0
 40
0
 40
0
 40
1
 40
1
 40
1
 40
1
 10
437.951615
 20
625.173269
 30
0.0
 10
481.687743
 20
566.185685
 30
0.0
 10
471.754835
 20
491.560776
 30
0.0
 10
414.083500
 20
448.439805
 30
0.0
  0
SPLINE
  5
150
100
AcDbEntity
  8
Layer_1
 62
1
100
AcDbSpline
 70
8
 71
3
 72
8
 73
4
 74
0
 40
0
 40
0
 40
0
 40
0
 40
1
 40
1
 40
1
 40
1
 10
414.083500
 20
448.439805
 30
0.0
 10
392.930883
 20
432.626294
 30
0.0
 10
368.561064
 20
421.214391
 30
0.0
 10
344.659188
 20
410.314087
 30
0.0
  0
SPLINE
  5
151
100
AcDbEntity
  8
Layer_1
 62
1
100
AcDbSpline
 70
8
 71
3
 72
8
 73
4
 74
0
 40
0
 40
0
 40
0
 40
0
 40
1
 40
1
 40
1
 40
1
 10
344.659188
 20
410.314087
 30
0.0
 10
309.884048
 20
394.454724
 30
0.0
 10
276.931226
 20
376.365611
 30
0.0
 10
252.689622
 20
344.149760
 30
0.0
  0
SPLINE
  5
152
100
AcDbEntity
  8
Layer_1
 62
1
100
AcDbSpline
 70
8
 71
3
 72
8
 73
4
 74
0
 40
0
 40
0
 40
0
 40
0
 40
1
 40
1
 40
1
 40
1
 10
252.689622
 20
344.149760
 30
0.0
 10
226.346732
 20
309.139458
 30
0.0
 10
218.890887
 20
270.007450
 30
0.0
 10
234.619244
 20
227.921741
 30
0.0
  0
SPLINE
  5
153
100
AcDbEntity
  8
Layer_1
 62
1
100
AcDbSpline
 70
8
 71
3
 72
8
 73
4
 74
0
 40
0
 40
0
 40
0
 40
0
 40
1
 40
1
 40
1
 40
1
 10
234.619244
 20
227.921741
 30
0.0
 10
249.553436
 20
187.964419
 30
0.0
 10
271.830932
 20
155.246652
 30
0.0
 10
315.571531
 20
148.173652
 30
0.0
  0
SPLINE
  5
154
100
AcDbEntity
  8
Layer_1
 62
1
100
AcDbSpline
 70
8
 71
3
 72
8
 73
4
 74
0
 40
0
 40
0
 40
0
 40
0
 40
1
 40
1
 40
1
 40
1
 10
315.571531
 20
148.173652
 30
0.0
 10
361.172707
 20
140.796592
 30
0.0
 10
403.219232
 20
182.225924
 30
0.0
 10
399.068343
 20
231.611488
 30
0.0
  0
SPLINE
  5
155
100
AcDbEntity
  8
Layer_1
 62
1
100
AcDbSpline
 70
8
 71
3
 72
8
 73
4
 74
0
 40
0
 40
0
 40
0
 40
0
 40
1
 40
1
 40
1
 40
1
 10
399.068343
 20
231.611488
 30
0.0
 10
397.248248
 20
253.274513
 30
0.0
 10
388.849738
 20
271.660488
 30
0.0
 10
367.987368
 20
279.698741
 30
0.0
  0
SPLINE
  5
156
100
AcDbEntity
  8
Layer_1
 62
1
100
AcDbSpline
 70
8
 71
3
 72
8
 73
4
 74
0
 40
0
 40
0
 40
0
 40
0
 40
1
 40
1
 40
1
 40
1
 10
367.987368
 20
279.698741
 30
0.0
 10
351.746053
 20
285.956110
 30
0.0
 10
333.662152
 20
278.238770
 30
0.0
 10
318.925972
 20
259.580142
 30
0.0
  0
SPLINE
  5
157
100
AcDbEntity
  8
Layer_1
 62
1
100
AcDbSpline
 70
8
 71
3
 72
8
 73
4
 74
0
 40
0
 40
0
 40
0
 40
0
 40
1
 40
1
 40
1
 40
1
 10
318.925972
 20
259.580142
 30
0.0
 10
312.838015
 20
251.874893
 30
0.0
 10
306.574560
 20
244.336120
 30
0.0
 10
298.835260
 20
234.799293
 30
0.0
  0
SPLINE
  5
158
100
AcDbEntity
  8
Layer_1
 62
1
100
AcDbSpline
 70
8
 71
3
 72
8
 73
4
 74
0
 40
0
 40
0
 40
0
 40
0
 40
1
 40
1
 40
1
 40
1
 10
298.835260
 20
234.799293
 30
0.0
 10
292.382840
 20
263.342279
 30
0.0
 10
300.405641
 20
282.613867
 30
0.0
 10
322.104941
 20
297.739620
 30
0.0
  0
SPLINE
  5
159
100
AcDbEntity
  8
Layer_1
 62
1
100
AcDbSpline
 70
8
 71
3
 72
8
 73
4
 74
0
 40
0
 40
0
 40
0
 40
0
 40
1
 40
1
 40
1
 40
1
 10
322.104941
 20
297.739620
 30
0.0
 10
352.801211
 20
319.132400
 30
0.0
 10
393.896056
 20
319.470220
 30
0.0
 10
420.754175
 20
298.538397
 30
0.0
  0
SPLINE
  5
15a
100
AcDbEntity
  8
Layer_1
 62
1
100
AcDbSpline
 70
8
 71
3
 72
8
 73
4
 74
0
 40
0
 40
0
 40
0
 40
0
 40
1
 40
1
 40
1
 40
1
 10
420.754175
 20
298.538397
 30
0.0
 10
447.976731
 20
277.326619
 30
0.0
 10
459.173977
 20
235.834529
 30
0.0
 10
447.574009
 20
193.225155
 30
0.0
  0
SPLINE
  5
15b
100
AcDbEntity
  8
Layer_1
 62
1
100
AcDbSpline
 70
8
 71
3
 72
8
 73
4
 74
0
 40
0
 40
0
 40
0
 40
0
 40
1
 40
1
 40
1
 40
1
 10
447.574009
 20
193.225155
 30
0.0
 10
430.878271
 20
131.916117
 30
0.0
 10
392.492177
 20
95.042831
 30
0.0
 10
334.454103
 20
81.442190
 30
0.0
  0
SPLINE
  5
15c
100
AcDbEntity
  8
Layer_1
 62
1
100
AcDbSpline
 70
8
 71
3
 72
8
 73
4
 74
0
 40
0
 40
0
 40
0
 40
0
 40
1
 40
1
 40
1
 40
1
 10
334.454103
 20
81.442190
 30
0.0
 10
329.045570
 20
80.177693
 30
0.0
 10
323.670798
 20
78.737037
 30
0.0
 10
318.280283
 20
77.375994
 30
0.0
  0
LWPOLYLINE
  5
15d
100
AcDbEntity
  8
Layer_1
 62
1
100
AcDbPolyline
 90
3
 70
0
 10
299.575458
 20
979.902287
 30
0.0
 10
310.795220
 20
979.902287
 30
0.0
 10
310.795220
 20
957.759017
 30
0.0
  0
SPLINE
  5
15e
100
AcDbEntity
  8
Layer_1
 62
7
100
AcDbSpline
 70
8
 71
3
 72
8
 73
4
 74
0
 40
0
 40
0
 40
0
 40
0
 40
1
 40
1
 40
1
 40
1
 10
730.238808
 20
979.900647
 30
0.0
 10
749.915553
 20
955.158375
 30
0.0
 10
771.315635
 20
941.265871
 30
0.0
 10
803.040076
 20
975.853871
 30
0.0
  0
SPLINE
  5
15f
100
AcDbEntity
  8
Layer_1
 62
7
100
AcDbSpline
 70
8
 71
3
 72
8
 73
4
 74
0
 40
0
 40
0
 40
0
 40
0
 40
1
 40
1
 40
1
 40
1
 10
803.040076
 20
975.853871
 30
0.0
 10
795.649470
 20
930.770935
 30
0.0
 10
815.738357
 20
919.327812
 30
0.0
 10
849.510091
 20
920.075895
 30
0.0
  0
SPLINE
  5
160
100
AcDbEntity
  8
Layer_1
 62
7
100
AcDbSpline
 70
8
 71
3
 72
8
 73
4
 74
0
 40
0
 40
0
 40
0
 40
0
 40
1
 40
1
 40
1
 40
1
 10
849.510091
 20
920.075895
 30
0.0
 10
830.058321
 20
885.690592
 30
0.0
 10
850.632533
 20
868.455739
 30
0.0
 10
873.058537
 20
850.689921
 30
0.0
  0
SPLINE
  5
161
100
AcDbEntity
  8
Layer_1
 62
7
100
AcDbSpline
 70
8
 71
3
 72
8
 73
4
 74
0
 40
0
 40
0
 40
0
 40
0
 40
1
 40
1
 40
1
 40
1
 10
873.058537
 20
850.689921
 30
0.0
 10
862.662211
 20
842.668548
 30
0.0
 10
854.949792
 20
836.295318
 30
0.0
 10
846.841530
 20
830.564046
 30
0.0
  0
SPLINE
  5
162
100
AcDbEntity
  8
Layer_1
 62
7
100
AcDbSpline
 70
8
 71
3
 72
8
 73
4
 74
0
 40
0
 40
0
 40
0
 40
0
 40
1
 40
1
 40
1
 40
1
 10
846.841530
 20
830.564046
 30
0.0
 10
834.544120
 20
821.876584
 30
0.0
 10
831.869341
 20
813.189149
 30
0.0
 10
842.544644
 20
799.834649
 30
0.0
  0
SPLINE
  5
163
100
AcDbEntity
  8
Layer_1
 62
7
100
AcDbSpline
 70
8
 71
3
 72
8
 73
4
 74
0
 40
0
 40
0
 40
0
 40
0
 40
1
 40
1
 40
1
 40
1
 10
842.544644
 20
799.834649
 30
0.0
 10
852.178281
 20
787.776026
 30
0.0
 10
860.317897
 20
774.009173
 30
0.0
 10
867.371027
 20
759.983822
 30
0.0
  0
SPLINE
  5
164
100
AcDbEntity
  8
Layer_1
 62
7
100
AcDbSpline
 70
8
 71
3
 72
8
 73
4
 74
0
 40
0
 40
0
 40
0
 40
0
 40
1
 40
1
 40
1
 40
1
 10
867.371027
 20
759.983822
 30
0.0
 10
900.638809
 20
693.833941
 30
0.0
 10
892.906150
 20
637.121641
 30
0.0
 10
844.220488
 20
583.134158
 30
0.0
  0
SPLINE
  5
165
100
AcDbEntity
  8
Layer_1
 62
7
100
AcDbSpline
 70
8
 71
3
 72
8
 73
4
 74
0
 40
0
 40
0
 40
0
 40
0
 40
1
 40
1
 40
1
 40
1
 10
844.220488
 20
583.134158
 30
0.0
 10
839.934635
 20
578.380204
 30
0.0
 10
835.317973
 20
573.279249
 30
0.0
 10
833.036683
 20
567.371817
 30
0.0
  0
SPLINE
  5
166
100
AcDbEntity
  8
Layer_1
 62
7
100
AcDbSpline
 70
8
 71
3
 72
8
 73
4
 74
0
 40
0
 40
0
 40
0
 40
0
 40
1
 40
1
 40
1
 40
1
 10
833.036683
 20
567.371817
 30
0.0
 10
831.547317
 20
563.517976
 30
0.0
 10
832.416076
 20
556.372268
 30
0.0
 10
834.960600
 20
553.336492
 30
0.0
  0
SPLINE
  5
167
100
AcDbEntity
  8
Layer_1
 62
7
100
AcDbSpline
 70
8
 71
3
 72
8
 73
4
 74
0
 40
0
 40
0
 40
0
 40
0
 40
1
 40
1
 40
1
 40
1
 10
834.960600
 20
553.336492
 30
0.0
 10
851.152412
 20
534.028708
 30
0.0
 10
873.200036
 20
546.388507
 30
0.0
 10
887.666421
 20
561.712724
 30
0.0
  0
SPLINE
  5
168
100
AcDbEntity
  8
Layer_1
 62
7
100
AcDbSpline
 70
8
 71
3
 72
8
 73
4
 74
0
 40
0
 40
0
 40
0
 40
0
 40
1
 40
1
 40
1
 40
1
 10
887.666421
 20
561.712724
 30
0.0
 10
887.666421
 20
561.712724
 30
0.0
 10
908.979270
 20
586.206949
 30
0.0
 10
912.797181
 20
599.493874
 30
0.0
  0
SPLINE
  5
169
100
AcDbEntity
  8
Layer_1
 62
7
100
AcDbSpline
 70
8
 71
3
 72
8
 73
4
 74
0
 40
0
 40
0
 40
0
 40
0
 40
1
 40
1
 40
1
 40
1
 10
912.797181
 20
599.493874
 30
0.0
 10
945.205543
 20
565.292007
 30
0.0
 10
959.896401
 20
569.977990
 30
0.0
 10
995.679471
 20
584.785211
 30
0.0
  0
SPLINE
  5
16a
100
AcDbEntity
  8
Layer_1
 62
7
100
AcDbSpline
 70
8
 71
3
 72
8
 73
4
 74
0
 40
0
 40
0
 40
0
 40
0
 40
1
 40
1
 40
1
 40
1
 10
995.679471
 20
584.785211
 30
0.0
 10
992.098626
 20
570.977691
 30
0.0
 10
990.324489
 20
534.256514
 30
0.0
 10
1023.028180
 20
509.477148
 30
0.0
  0
SPLINE
  5
16b
100
AcDbEntity
  8
Layer_1
 62
7
100
AcDbSpline
 70
8
 71
3
 72
8
 73
4
 74
0
 40
0
 40
0
 40
0
 40
0
 40
1
 40
1
 40
1
 40
1
 10
1023.028180
 20
509.477148
 30
0.0
 10
1011.965660
 20
496.903989
 30
0.0
 10
1014.490949
 20
455.238437
 30
0.0
 10
1026.339626
 20
447.531072
 30
0.0
  0
SPLINE
  5
16c
100
AcDbEntity
  8
Layer_1
 62
7
100
AcDbSpline
 70
8
 71
3
 72
8
 73
4
 74
0
 40
0
 40
0
 40
0
 40
0
 40
1
 40
1
 40
1
 40
1
 10
1026.339626
 20
447.531072
 30
0.0
 10
1002.325778
 20
440.685454
 30
0.0
 10
984.503206
 20
412.196603
 30
0.0
 10
979.899033
 20
392.609869
 30
0.0
  0
SPLINE
  5
16d
100
AcDbEntity
  8
Layer_1
 62
7
100
AcDbSpline
 70
8
 71
3
 72
8
 73
4
 74
0
 40
0
 40
0
 40
0
 40
0
 40
1
 40
1
 40
1
 40
1
 10
979.899033
 20
392.609869
 30
0.0
 10
963.052536
 20
397.412083
 30
0.0
 10
947.789967
 20
402.592995
 30
0.0
 10
932.176375
 20
405.826627
 30
0.0
  0
SPLINE
  5
16e
100
AcDbEntity
  8
Layer_1
 62
7
100
AcDbSpline
 70
8
 71
3
 72
8
 73
4
 74
0
 40
0
 40
0
 40
0
 40
0
 40
1
 40
1
 40
1
 40
1
 10
932.176375
 20
405.826627
 30
0.0
 10
906.644110
 20
410.797486
 30
0.0
 10
908.100430
 20
390.114742
 30
0.0
 10
915.525696
 20
371.731043
 30
0.0
  0
SPLINE
  5
16f
100
AcDbEntity
  8
Layer_1
 62
7
100
AcDbSpline
 70
8
 71
3
 72
8
 73
4
 74
0
 40
0
 40
0
 40
0
 40
0
 40
1
 40
1
 40
1
 40
1
 10
915.525696
 20
371.731043
 30
0.0
 10
916.658986
 20
368.345302
 30
0.0
 10
917.722823
 20
364.965038
 30
0.0
 10
918.722921
 20
361.590066
 30
0.0
  0
LWPOLYLINE
  5
170
100
AcDbEntity
  8
Layer_1
 62
1
100
AcDbPolyline
 90
2
 70
0
 10
318.280283
 20
77.375994
 30
0.0
 10
277.135934
 20
77.375994
 30
0.0
  0
SPLINE
  5
171
100
AcDbEntity
  8
Layer_1
 62
7
100
AcDbSpline
 70
8
 71
3
 72
8
 73
4
 74
0
 40
0
 40
0
 40
0
 40
0
 40
1
 40
1
 40
1
 40
1
 10
1005.737262
 20
361.590066
 30
0.0
 10
1018.929387
 20
361.590066
 30
0.0
 10
1029.549762
 20
350.969691
 30
0.0
 10
1029.549762
 20
337.777566
 30
0.0
  0
LWPOLYLINE
  5
172
100
AcDbEntity
  8
Layer_1
 62
7
100
AcDbPolyline
 90
2
 70
0
 10
918.722921
 20
361.590066
 30
0.0
 10
1005.737262
 20
361.590066
 30
0.0
  0
SPLINE
  5
173
100
AcDbEntity
  8
Layer_1
 62
7
100
AcDbSpline
 70
8
 71
3
 72
8
 73
4
 74
0
 40
0
 40
0
 40
0
 40
0
 40
1
 40
1
 40
1
 40
1
 10
1029.549762
 20
100.372418
 30
0.0
 10
1029.549762
 20
87.180288
 30
0.0
 10
1018.929387
 20
76.559913
 30
0.0
 10
1005.737262
 20
76.559913
 30
0.0
  0
LWPOLYLINE
  5
174
100
AcDbEntity
  8
Layer_1
 62
7
100
AcDbPolyline
 90
2
 70
0
 10
1029.549762
 20
337.777566
 30
0.0
 10
1029.549762
 20
100.372418
 30
0.0
  0
SPLINE
  5
175
100
AcDbEntity
  8
Layer_1
 62
7
100
AcDbSpline
 70
8
 71
3
 72
8
 73
4
 74
0
 40
0
 40
0
 40
0
 40
0
 40
1
 40
1
 40
1
 40
1
 10
587.494036
 20
76.559913
 30
0.0
 10
574.301911
 20
76.559913
 30
0.0
 10
563.681536
 20
87.180288
 30
0.0
 10
563.681536
 20
100.372418
 30
0.0
  0
LWPOLYLINE
  5
176
100
AcDbEntity
  8
Layer_1
 62
7
100
AcDbPolyline
 90
2
 70
0
 10
1005.737262
 20
76.559913
 30
0.0
 10
587.494036
 20
76.559913
 30
0.0
  0
SPLINE
  5
177
100
AcDbEntity
  8
Layer_1
 62
7
100
AcDbSpline
 70
8
 71
3
 72
8
 73
4
 74
0
 40
0
 40
0
 40
0
 40
0
 40
1
 40
1
 40
1
 40
1
 10
563.681536
 20
337.777566
 30
0.0
 10
563.681536
 20
350.969691
 30
0.0
 10
574.301911
 20
361.590066
 30
0.0
 10
587.494036
 20
361.590066
 30
0.0
  0
LWPOLYLINE
  5
178
100
AcDbEntity
  8
Layer_1
 62
7
100
AcDbPolyline
 90
2
 70
0
 10
563.681536
 20
100.372418
 30
0.0
 10
563.681536
 20
337.777566
 30
0.0
  0
SPLINE
  5
179
100
AcDbEntity
  8
Layer_1
 62
7
100
AcDbSpline
 70
8
 71
3
 72
8
 73
4
 74
0
 40
0
 40
0
 40
0
 40
0
 40
1
 40
1
 40
1
 40
1
 10
761.877710
 20
361.590066
 30
0.0
 10
739.862260
 20
383.384510
 30
0.0
 10
713.097697
 20
397.569404
 30
0.0
 10
685.155263
 20
410.312664
 30
0.0
  0
SPLINE
  5
17a
100
AcDbEntity
  8
Layer_1
 62
7
100
AcDbSpline
 70
8
 71
3
 72
8
 73
4
 74
0
 40
0
 40
0
 40
0
 40
0
 40
1
 40
1
 40
1
 40
1
 10
685.155263
 20
410.312664
 30
0.0
 10
661.253387
 20
421.212968
 30
0.0
 10
636.883701
 20
432.625003
 30
0.0
 10
615.731084
 20
448.438513
 30
0.0
  0
SPLINE
  5
17b
100
AcDbEntity
  8
Layer_1
 62
7
100
AcDbSpline
 70
8
 71
3
 72
8
 73
4
 74
0
 40
0
 40
0
 40
0
 40
0
 40
1
 40
1
 40
1
 40
1
 10
615.731084
 20
448.438513
 30
0.0
 10
558.059749
 20
491.559485
 30
0.0
 10
548.126629
 20
566.184314
 30
0.0
 10
591.862757
 20
625.171893
 30
0.0
  0
SPLINE
  5
17c
100
AcDbEntity
  8
Layer_1
 62
7
100
AcDbSpline
 70
8
 71
3
 72
8
 73
4
 74
0
 40
0
 40
0
 40
0
 40
0
 40
1
 40
1
 40
1
 40
1
 10
591.862757
 20
625.171893
 30
0.0
 10
604.767597
 20
642.582932
 30
0.0
 10
621.868174
 20
657.119590
 30
0.0
 10
638.937397
 20
670.116955
 30
0.0
  0
SPLINE
  5
17d
100
AcDbEntity
  8
Layer_1
 62
7
100
AcDbSpline
 70
8
 71
3
 72
8
 73
4
 74
0
 40
0
 40
0
 40
0
 40
0
 40
1
 40
1
 40
1
 40
1
 10
638.937397
 20
670.116955
 30
0.0
 10
661.201423
 20
687.067037
 30
0.0
 10
686.077892
 20
700.045087
 30
0.0
 10
708.501647
 20
716.782841
 30
0.0
  0
SPLINE
  5
17e
100
AcDbEntity
  8
Layer_1
 62
7
100
AcDbSpline
 70
8
 71
3
 72
8
 73
4
 74
0
 40
0
 40
0
 40
0
 40
0
 40
1
 40
1
 40
1
 40
1
 10
708.501647
 20
716.782841
 30
0.0
 10
737.528555
 20
738.458010
 30
0.0
 10
743.332693
 20
740.846589
 30
0.0
 10
716.782788
 20
769.201376
 30
0.0
  0
SPLINE
  5
17f
100
AcDbEntity
  8
Layer_1
 62
7
100
AcDbSpline
 70
8
 71
3
 72
8
 73
4
 74
0
 40
0
 40
0
 40
0
 40
0
 40
1
 40
1
 40
1
 40
1
 10
716.782788
 20
769.201376
 30
0.0
 10
694.750881
 20
748.709450
 30
0.0
 10
687.909100
 20
744.904265
 30
0.0
 10
656.868606
 20
741.880554
 30
0.0
  0
SPLINE
  5
180
100
AcDbEntity
  8
Layer_1
 62
7
100
AcDbSpline
 70
8
 71
3
 72
8
 73
4
 74
0
 40
0
 40
0
 40
0
 40
0
 40
1
 40
1
 40
1
 40
1
 10
656.868606
 20
741.880554
 30
0.0
 10
624.957449
 20
738.774796
 30
0.0
 10
602.885298
 20
784.111547
 30
0.0
 10
566.388859
 20
776.710992
 30
0.0
  0
SPLINE
  5
181
100
AcDbEntity
  8
Layer_1
 62
7
100
AcDbSpline
 70
8
 71
3
 72
8
 73
4
 74
0
 40
0
 40
0
 40
0
 40
0
 40
1
 40
1
 40
1
 40
1
 10
566.388859
 20
776.710992
 30
0.0
 10
558.221700
 20
774.793213
 30
0.0
 10
551.395424
 20
767.472192
 30
0.0
 10
546.637104
 20
769.400343
 30
0.0
  0
SPLINE
  5
182
100
AcDbEntity
  8
Layer_1
 62
7
100
AcDbSpline
 70
8
 71
3
 72
8
 73
4
 74
0
 40
0
 40
0
 40
0
 40
0
 40
1
 40
1
 40
1
 40
1
 10
546.637104
 20
769.400343
 30
0.0
 10
535.741351
 20
773.809201
 30
0.0
 10
522.493372
 20
779.547087
 30
0.0
 10
517.880706
 20
790.401116
 30
0.0
  0
SPLINE
  5
183
100
AcDbEntity
  8
Layer_1
 62
7
100
AcDbSpline
 70
8
 71
3
 72
8
 73
4
 74
0
 40
0
 40
0
 40
0
 40
0
 40
1
 40
1
 40
1
 40
1
 10
517.880706
 20
790.401116
 30
0.0
 10
517.529392
 20
803.383585
 30
0.0
 10
518.664322
 20
817.625524
 30
0.0
 10
532.075205
 20
820.953770
 30
0.0
  0
SPLINE
  5
184
100
AcDbEntity
  8
Layer_1
 62
7
100
AcDbSpline
 70
8
 71
3
 72
8
 73
4
 74
0
 40
0
 40
0
 40
0
 40
0
 40
1
 40
1
 40
1
 40
1
 10
532.075205
 20
820.953770
 30
0.0
 10
580.749119
 20
843.341304
 30
0.0
 10
606.437250
 20
829.644936
 30
0.0
 10
619.591831
 20
894.313124
 30
0.0
  0
SPLINE
  5
185
100
AcDbEntity
  8
Layer_1
 62
7
100
AcDbSpline
 70
8
 71
3
 72
8
 73
4
 74
0
 40
0
 40
0
 40
0
 40
0
 40
1
 40
1
 40
1
 40
1
 10
619.591831
 20
894.313124
 30
0.0
 10
625.115087
 20
921.470937
 30
0.0
 10
644.274096
 20
940.312630
 30
0.0
 10
672.794777
 20
943.297739
 30
0.0
  0
SPLINE
  5
186
100
AcDbEntity
  8
Layer_1
 62
7
100
AcDbSpline
 70
8
 71
3
 72
8
 73
4
 74
0
 40
0
 40
0
 40
0
 40
0
 40
1
 40
1
 40
1
 40
1
 10
672.794777
 20
943.297739
 30
0.0
 10
676.176231
 20
943.654900
 30
0.0
 10
679.402322
 20
945.650678
 30
0.0
 10
683.643196
 20
947.238575
 30
0.0
  0
SPLINE
  5
187
100
AcDbEntity
  8
Layer_1
 62
7
100
AcDbSpline
 70
8
 71
3
 72
8
 73
4
 74
0
 40
0
 40
0
 40
0
 40
0
 40
1
 40
1
 40
1
 40
1
 10
683.643196
 20
947.238575
 30
0.0
 10
681.944597
 20
954.473263
 30
0.0
 10
680.504841
 20
960.602653
 30
0.0
 10
678.635242
 20
968.554044
 30
0.0
  0
SPLINE
  5
188
100
AcDbEntity
  8
Layer_1
 62
7
100
AcDbSpline
 70
8
 71
3
 72
8
 73
4
 74
0
 40
0
 40
0
 40
0
 40
0
 40
1
 40
1
 40
1
 40
1
 10
678.635242
 20
968.554044
 30
0.0
 10
692.417520
 20
964.871520
 30
0.0
 10
704.944615
 20
961.522345
 30
0.0
 10
719.019337
 20
957.757800
 30
0.0
  0
LWPOLYLINE
  5
189
100
AcDbEntity
  8
Layer_1
 62
7
100
AcDbPolyline
 90
2
 70
0
 10
587.494036
 20
361.590066
 30
0.0
 10
761.877710
 20
361.590066
 30
0.0
  0
LWPOLYLINE
  5
18a
100
AcDbEntity
  8
Layer_1
 62
7
100
AcDbPolyline
 90
4
 70
0
 10
719.019337
 20
957.757800
 30
0.0
 10
719.019337
 20
979.900647
 30
0.0
 10
730.238808
 20
979.900647
 30
0.0
 10
730.238808
 20
979.900647
 30
0.0
  0
LWPOLYLINE
  5
18b
100
AcDbEntity
  8
Layer_1
 62
7
100
AcDbPolyline
 90
4
 70
1
 10
1003.520715
 20
508.162769
 30
0.0
 10
585.648911
 20
508.162769
 30
0.0
 10
585.648911
 20
490.473232
 30
0.0
 10
1003.520715
 20
490.473232
 30
0.0
  0
LWPOLYLINE
  5
18c
100
AcDbEntity
  8
Layer_1
 62
7
100
AcDbPolyline
 90
4
 70
1
 10
828.072517
 20
808.013926
 30
0.0
 10
525.635908
 20
808.013926
 30
0.0
 10
525.635908
 20
790.299140
 30
0.0
 10
828.072517
 20
790.299140
 30
0.0
  0
SPLINE
  5
18d
100
AcDbEntity
  8
Layer_1
 62
1
100
AcDbSpline
 70
8
 71
3
 72
8
 73
4
 74
0
 40
0
 40
0
 40
0
 40
0
 40
1
 40
1
 40
1
 40
1
 10
752.773476
 20
77.376232
 30
0.0
 10
815.133413
 20
90.170873
 30
0.0
 10
864.804489
 20
124.331762
 30
0.0
 10
899.005933
 20
181.651809
 30
0.0
  0
SPLINE
  5
18e
100
AcDbEntity
  8
Layer_1
 62
1
100
AcDbSpline
 70
8
 71
3
 72
8
 73
4
 74
0
 40
0
 40
0
 40
0
 40
0
 40
1
 40
1
 40
1
 40
1
 10
899.005933
 20
181.651809
 30
0.0
 10
934.674254
 20
241.435737
 30
0.0
 10
937.760989
 20
305.587511
 30
0.0
 10
915.620708
 20
371.732577
 30
0.0
  0
SPLINE
  5
18f
100
AcDbEntity
  8
Layer_1
 62
1
100
AcDbSpline
 70
8
 71
3
 72
8
 73
4
 74
0
 40
0
 40
0
 40
0
 40
0
 40
1
 40
1
 40
1
 40
1
 10
915.620708
 20
371.732577
 30
0.0
 10
908.195441
 20
390.116251
 30
0.0
 10
906.739201
 20
410.799100
 30
0.0
 10
932.271466
 20
405.828267
 30
0.0
  0
SPLINE
  5
190
100
AcDbEntity
  8
Layer_1
 62
1
100
AcDbSpline
 70
8
 71
3
 72
8
 73
4
 74
0
 40
0
 40
0
 40
0
 40
0
 40
1
 40
1
 40
1
 40
1
 10
932.271466
 20
405.828267
 30
0.0
 10
947.885085
 20
402.594609
 30
0.0
 10
963.147733
 20
397.413512
 30
0.0
 10
979.994230
 20
392.611298
 30
0.0
  0
SPLINE
  5
191
100
AcDbEntity
  8
Layer_1
 62
1
100
AcDbSpline
 70
8
 71
3
 72
8
 73
4
 74
0
 40
0
 40
0
 40
0
 40
0
 40
1
 40
1
 40
1
 40
1
 10
979.994230
 20
392.611298
 30
0.0
 10
984.598403
 20
412.198058
 30
0.0
 10
1002.420737
 20
440.687068
 30
0.0
 10
1026.434585
 20
447.532686
 30
0.0
  0
SPLINE
  5
192
100
AcDbEntity
  8
Layer_1
 62
1
100
AcDbSpline
 70
8
 71
3
 72
8
 73
4
 74
0
 40
0
 40
0
 40
0
 40
0
 40
1
 40
1
 40
1
 40
1
 10
1026.434585
 20
447.532686
 30
0.0
 10
1014.585908
 20
455.240078
 30
0.0
 10
1012.060354
 20
496.905656
 30
0.0
 10
1023.122874
 20
509.478814
 30
0.0
  0
SPLINE
  5
193
100
AcDbEntity
  8
Layer_1
 62
1
100
AcDbSpline
 70
8
 71
3
 72
8
 73
4
 74
0
 40
0
 40
0
 40
0
 40
0
 40
1
 40
1
 40
1
 40
1
 10
1023.122874
 20
509.478814
 30
0.0
 10
990.419184
 20
534.258155
 30
0.0
 10
992.193480
 20
570.979120
 30
0.0
 10
995.774324
 20
584.786666
 30
0.0
  0
SPLINE
  5
194
100
AcDbEntity
  8
Layer_1
 62
1
100
AcDbSpline
 70
8
 71
3
 72
8
 73
4
 74
0
 40
0
 40
0
 40
0
 40
0
 40
1
 40
1
 40
1
 40
1
 10
995.774324
 20
584.786666
 30
0.0
 10
959.991254
 20
569.979445
 30
0.0
 10
945.300582
 20
565.293701
 30
0.0
 10
912.892219
 20
599.495568
 30
0.0
  0
SPLINE
  5
195
100
AcDbEntity
  8
Layer_1
 62
1
100
AcDbSpline
 70
8
 71
3
 72
8
 73
4
 74
0
 40
0
 40
0
 40
0
 40
0
 40
1
 40
1
 40
1
 40
1
 10
912.892219
 20
599.495568
 30
0.0
 10
909.074308
 20
586.208643
 30
0.0
 10
887.761565
 20
561.714232
 30
0.0
 10
887.761565
 20
561.714232
 30
0.0
  0
SPLINE
  5
196
100
AcDbEntity
  8
Layer_1
 62
1
100
AcDbSpline
 70
8
 71
3
 72
8
 73
4
 74
0
 40
0
 40
0
 40
0
 40
0
 40
1
 40
1
 40
1
 40
1
 10
887.761565
 20
561.714232
 30
0.0
 10
873.295180
 20
546.390015
 30
0.0
 10
851.247186
 20
534.030428
 30
0.0
 10
835.055401
 20
553.338212
 30
0.0
  0
SPLINE
  5
197
100
AcDbEntity
  8
Layer_1
 62
1
100
AcDbSpline
 70
8
 71
3
 72
8
 73
4
 74
0
 40
0
 40
0
 40
0
 40
0
 40
1
 40
1
 40
1
 40
1
 10
835.055401
 20
553.338212
 30
0.0
 10
832.510876
 20
556.373988
 30
0.0
 10
831.642434
 20
563.519378
 30
0.0
 10
833.131800
 20
567.373220
 30
0.0
  0
SPLINE
  5
198
100
AcDbEntity
  8
Layer_1
 62
1
100
AcDbSpline
 70
8
 71
3
 72
8
 73
4
 74
0
 40
0
 40
0
 40
0
 40
0
 40
1
 40
1
 40
1
 40
1
 10
833.131800
 20
567.373220
 30
0.0
 10
835.413117
 20
573.280651
 30
0.0
 10
840.029700
 20
578.382109
 30
0.0
 10
844.315553
 20
583.136063
 30
0.0
  0
SPLINE
  5
199
100
AcDbEntity
  8
Layer_1
 62
1
100
AcDbSpline
 70
8
 71
3
 72
8
 73
4
 74
0
 40
0
 40
0
 40
0
 40
0
 40
1
 40
1
 40
1
 40
1
 10
844.315553
 20
583.136063
 30
0.0
 10
893.001214
 20
637.123519
 30
0.0
 10
900.733795
 20
693.835475
 30
0.0
 10
867.466012
 20
759.985410
 30
0.0
  0
SPLINE
  5
19a
100
AcDbEntity
  8
Layer_1
 62
1
100
AcDbSpline
 70
8
 71
3
 72
8
 73
4
 74
0
 40
0
 40
0
 40
0
 40
0
 40
1
 40
1
 40
1
 40
1
 10
867.466012
 20
759.985410
 30
0.0
 10
860.412882
 20
774.010708
 30
0.0
 10
852.273108
 20
787.777904
 30
0.0
 10
842.639470
 20
799.836501
 30
0.0
  0
SPLINE
  5
19b
100
AcDbEntity
  8
Layer_1
 62
1
100
AcDbSpline
 70
8
 71
3
 72
8
 73
4
 74
0
 40
0
 40
0
 40
0
 40
0
 40
1
 40
1
 40
1
 40
1
 10
842.639470
 20
799.836501
 30
0.0
 10
831.964168
 20
813.190975
 30
0.0
 10
834.639185
 20
821.878410
 30
0.0
 10
846.936568
 20
830.565845
 30
0.0
  0
SPLINE
  5
19c
100
AcDbEntity
  8
Layer_1
 62
1
100
AcDbSpline
 70
8
 71
3
 72
8
 73
4
 74
0
 40
0
 40
0
 40
0
 40
0
 40
1
 40
1
 40
1
 40
1
 10
846.936568
 20
830.565845
 30
0.0
 10
855.044857
 20
836.297117
 30
0.0
 10
862.757170
 20
842.670294
 30
0.0
 10
873.153496
 20
850.691694
 30
0.0
  0
SPLINE
  5
19d
100
AcDbEntity
  8
Layer_1
 62
1
100
AcDbSpline
 70
8
 71
3
 72
8
 73
4
 74
0
 40
0
 40
0
 40
0
 40
0
 40
1
 40
1
 40
1
 40
1
 10
873.153496
 20
850.691694
 30
0.0
 10
850.727492
 20
868.457459
 30
0.0
 10
830.153068
 20
885.692338
 30
0.0
 10
849.604838
 20
920.077641
 30
0.0
  0
SPLINE
  5
19e
100
AcDbEntity
  8
Layer_1
 62
1
100
AcDbSpline
 70
8
 71
3
 72
8
 73
4
 74
0
 40
0
 40
0
 40
0
 40
0
 40
1
 40
1
 40
1
 40
1
 10
849.604838
 20
920.077641
 30
0.0
 10
815.833104
 20
919.329505
 30
0.0
 10
795.744641
 20
930.772734
 30
0.0
 10
803.135221
 20
975.855644
 30
0.0
  0
SPLINE
  5
19f
100
AcDbEntity
  8
Layer_1
 62
1
100
AcDbSpline
 70
8
 71
3
 72
8
 73
4
 74
0
 40
0
 40
0
 40
0
 40
0
 40
1
 40
1
 40
1
 40
1
 10
803.135221
 20
975.855644
 30
0.0
 10
771.410806
 20
941.267670
 30
0.0
 10
750.010697
 20
955.160253
 30
0.0
 10
730.333952
 20
979.902525
 30
0.0
  0
LWPOLYLINE
  5
1a0
100
AcDbEntity
  8
Layer_1
 62
7
100
AcDbPolyline
 90
4
 70
1
 10
828.262700
 20
808.661811
 30
0.0
 10
828.262700
 20
918.921150
 30
0.0
 10
810.490765
 20
918.921150
 30
0.0
 10
810.490765
 20
808.661811
 30
0.0
  0
SPLINE
  5
1a1
100
AcDbEntity
  8
Layer_1
 62
1
100
AcDbSpline
 70
8
 71
3
 72
8
 73
4
 74
0
 40
0
 40
0
 40
0
 40
0
 40
1
 40
1
 40
1
 40
1
 10
719.114190
 20
957.759255
 30
0.0
 10
705.039468
 20
961.523800
 30
0.0
 10
692.512585
 20
964.873266
 30
0.0
 10
678.730307
 20
968.555790
 30
0.0
  0
SPLINE
  5
1a2
100
AcDbEntity
  8
Layer_1
 62
1
100
AcDbSpline
 70
8
 71
3
 72
8
 73
4
 74
0
 40
0
 40
0
 40
0
 40
0
 40
1
 40
1
 40
1
 40
1
 10
678.730307
 20
968.555790
 30
0.0
 10
680.599906
 20
960.604399
 30
0.0
 10
682.039768
 20
954.474982
 30
0.0
 10
683.738367
 20
947.240242
 30
0.0
  0
SPLINE
  5
1a3
100
AcDbEntity
  8
Layer_1
 62
1
100
AcDbSpline
 70
8
 71
3
 72
8
 73
4
 74
0
 40
0
 40
0
 40
0
 40
0
 40
1
 40
1
 40
1
 40
1
 10
683.738367
 20
947.240242
 30
0.0
 10
679.497493
 20
945.652398
 30
0.0
 10
676.271269
 20
943.656725
 30
0.0
 10
672.889815
 20
943.299511
 30
0.0
  0
SPLINE
  5
1a4
100
AcDbEntity
  8
Layer_1
 62
1
100
AcDbSpline
 70
8
 71
3
 72
8
 73
4
 74
0
 40
0
 40
0
 40
0
 40
0
 40
1
 40
1
 40
1
 40
1
 10
672.889815
 20
943.299511
 30
0.0
 10
644.369134
 20
940.314456
 30
0.0
 10
625.209835
 20
921.472392
 30
0.0
 10
619.686578
 20
894.314606
 30
0.0
  0
SPLINE
  5
1a5
100
AcDbEntity
  8
Layer_1
 62
1
100
AcDbSpline
 70
8
 71
3
 72
8
 73
4
 74
0
 40
0
 40
0
 40
0
 40
0
 40
1
 40
1
 40
1
 40
1
 10
619.686578
 20
894.314606
 30
0.0
 10
606.531997
 20
829.646391
 30
0.0
 10
580.844104
 20
843.342971
 30
0.0
 10
532.170190
 20
820.955437
 30
0.0
  0
SPLINE
  5
1a6
100
AcDbEntity
  8
Layer_1
 62
1
100
AcDbSpline
 70
8
 71
3
 72
8
 73
4
 74
0
 40
0
 40
0
 40
0
 40
0
 40
1
 40
1
 40
1
 40
1
 10
532.170190
 20
820.955437
 30
0.0
 10
518.759308
 20
817.627191
 30
0.0
 10
517.624457
 20
803.385067
 30
0.0
 10
517.975771
 20
790.402650
 30
0.0
  0
SPLINE
  5
1a7
100
AcDbEntity
  8
Layer_1
 62
1
100
AcDbSpline
 70
8
 71
3
 72
8
 73
4
 74
0
 40
0
 40
0
 40
0
 40
0
 40
1
 40
1
 40
1
 40
1
 10
517.975771
 20
790.402650
 30
0.0
 10
522.588437
 20
779.548622
 30
0.0
 10
535.836072
 20
773.810788
 30
0.0
 10
546.731825
 20
769.401930
 30
0.0
  0
SPLINE
  5
1a8
100
AcDbEntity
  8
Layer_1
 62
1
100
AcDbSpline
 70
8
 71
3
 72
8
 73
4
 74
0
 40
0
 40
0
 40
0
 40
0
 40
1
 40
1
 40
1
 40
1
 10
546.731825
 20
769.401930
 30
0.0
 10
551.490145
 20
767.473779
 30
0.0
 10
558.316553
 20
774.794959
 30
0.0
 10
566.483712
 20
776.712712
 30
0.0
  0
SPLINE
  5
1a9
100
AcDbEntity
  8
Layer_1
 62
1
100
AcDbSpline
 70
8
 71
3
 72
8
 73
4
 74
0
 40
0
 40
0
 40
0
 40
0
 40
1
 40
1
 40
1
 40
1
 10
566.483712
 20
776.712712
 30
0.0
 10
602.980151
 20
784.113266
 30
0.0
 10
625.052143
 20
738.776304
 30
0.0
 10
656.963301
 20
741.882062
 30
0.0
  0
SPLINE
  5
1aa
100
AcDbEntity
  8
Layer_1
 62
1
100
AcDbSpline
 70
8
 71
3
 72
8
 73
4
 74
0
 40
0
 40
0
 40
0
 40
0
 40
1
 40
1
 40
1
 40
1
 10
656.963301
 20
741.882062
 30
0.0
 10
688.003794
 20
744.905800
 30
0.0
 10
694.845866
 20
748.711143
 30
0.0
 10
716.877773
 20
769.203017
 30
0.0
  0
SPLINE
  5
1ab
100
AcDbEntity
  8
Layer_1
 62
1
100
AcDbSpline
 70
8
 71
3
 72
8
 73
4
 74
0
 40
0
 40
0
 40
0
 40
0
 40
1
 40
1
 40
1
 40
1
 10
716.877773
 20
769.203017
 30
0.0
 10
743.427679
 20
740.848229
 30
0.0
 10
737.623302
 20
738.459915
 30
0.0
 10
708.596394
 20
716.784719
 30
0.0
  0
SPLINE
  5
1ac
100
AcDbEntity
  8
Layer_1
 62
1
100
AcDbSpline
 70
8
 71
3
 72
8
 73
4
 74
0
 40
0
 40
0
 40
0
 40
0
 40
1
 40
1
 40
1
 40
1
 10
708.596394
 20
716.784719
 30
0.0
 10
686.172639
 20
700.046966
 30
0.0
 10
661.296620
 20
687.068915
 30
0.0
 10
639.032594
 20
670.118834
 30
0.0
  0
SPLINE
  5
1ad
100
AcDbEntity
  8
Layer_1
 62
1
100
AcDbSpline
 70
8
 71
3
 72
8
 73
4
 74
0
 40
0
 40
0
 40
0
 40
0
 40
1
 40
1
 40
1
 40
1
 10
639.032594
 20
670.118834
 30
0.0
 10
621.963371
 20
657.121469
 30
0.0
 10
604.862635
 20
642.584546
 30
0.0
 10
591.957795
 20
625.173507
 30
0.0
  0
SPLINE
  5
1ae
100
AcDbEntity
  8
Layer_1
 62
1
100
AcDbSpline
 70
8
 71
3
 72
8
 73
4
 74
0
 40
0
 40
0
 40
0
 40
0
 40
1
 40
1
 40
1
 40
1
 10
591.957795
 20
625.173507
 30
0.0
 10
548.221667
 20
566.185928
 30
0.0
 10
558.154575
 20
491.561019
 30
0.0
 10
615.825910
 20
448.440048
 30
0.0
  0
SPLINE
  5
1af
100
AcDbEntity
  8
Layer_1
 62
1
100
AcDbSpline
 70
8
 71
3
 72
8
 73
4
 74
0
 40
0
 40
0
 40
0
 40
0
 40
1
 40
1
 40
1
 40
1
 10
615.825910
 20
448.440048
 30
0.0
 10
636.978528
 20
432.626537
 30
0.0
 10
661.348346
 20
421.214635
 30
0.0
 10
685.250222
 20
410.314331
 30
0.0
  0
SPLINE
  5
1b0
100
AcDbEntity
  8
Layer_1
 62
1
100
AcDbSpline
 70
8
 71
3
 72
8
 73
4
 74
0
 40
0
 40
0
 40
0
 40
0
 40
1
 40
1
 40
1
 40
1
 10
685.250222
 20
410.314331
 30
0.0
 10
720.025362
 20
394.454967
 30
0.0
 10
752.978185
 20
376.365855
 30
0.0
 10
777.219812
 20
344.150030
 30
0.0
  0
SPLINE
  5
1b1
100
AcDbEntity
  8
Layer_1
 62
1
100
AcDbSpline
 70
8
 71
3
 72
8
 73
4
 74
0
 40
0
 40
0
 40
0
 40
0
 40
1
 40
1
 40
1
 40
1
 10
777.219812
 20
344.150030
 30
0.0
 10
803.562681
 20
309.139701
 30
0.0
 10
811.018534
 20
270.007694
 30
0.0
 10
795.290166
 20
227.921984
 30
0.0
  0
SPLINE
  5
1b2
100
AcDbEntity
  8
Layer_1
 62
1
100
AcDbSpline
 70
8
 71
3
 72
8
 73
4
 74
0
 40
0
 40
0
 40
0
 40
0
 40
1
 40
1
 40
1
 40
1
 10
795.290166
 20
227.921984
 30
0.0
 10
780.355998
 20
187.964662
 30
0.0
 10
758.078478
 20
155.246896
 30
0.0
 10
714.337879
 20
148.173895
 30
0.0
  0
SPLINE
  5
1b3
100
AcDbEntity
  8
Layer_1
 62
1
100
AcDbSpline
 70
8
 71
3
 72
8
 73
4
 74
0
 40
0
 40
0
 40
0
 40
0
 40
1
 40
1
 40
1
 40
1
 10
714.337879
 20
148.173895
 30
0.0
 10
668.736703
 20
140.796836
 30
0.0
 10
626.690178
 20
182.226167
 30
0.0
 10
630.841067
 20
231.611731
 30
0.0
  0
SPLINE
  5
1b4
100
AcDbEntity
  8
Layer_1
 62
1
100
AcDbSpline
 70
8
 71
3
 72
8
 73
4
 74
0
 40
0
 40
0
 40
0
 40
0
 40
1
 40
1
 40
1
 40
1
 10
630.841067
 20
231.611731
 30
0.0
 10
632.661163
 20
253.274756
 30
0.0
 10
641.059673
 20
271.660731
 30
0.0
 10
661.922042
 20
279.698984
 30
0.0
  0
SPLINE
  5
1b5
100
AcDbEntity
  8
Layer_1
 62
1
100
AcDbSpline
 70
8
 71
3
 72
8
 73
4
 74
0
 40
0
 40
0
 40
0
 40
0
 40
1
 40
1
 40
1
 40
1
 10
661.922042
 20
279.698984
 30
0.0
 10
678.163358
 20
285.956354
 30
0.0
 10
696.247258
 20
278.239014
 30
0.0
 10
710.983439
 20
259.580385
 30
0.0
  0
SPLINE
  5
1b6
100
AcDbEntity
  8
Layer_1
 62
1
100
AcDbSpline
 70
8
 71
3
 72
8
 73
4
 74
0
 40
0
 40
0
 40
0
 40
0
 40
1
 40
1
 40
1
 40
1
 10
710.983439
 20
259.580385
 30
0.0
 10
717.071395
 20
251.875137
 30
0.0
 10
723.334850
 20
244.336364
 30
0.0
 10
731.074151
 20
234.799537
 30
0.0
  0
SPLINE
  5
1b7
100
AcDbEntity
  8
Layer_1
 62
1
100
AcDbSpline
 70
8
 71
3
 72
8
 73
4
 74
0
 40
0
 40
0
 40
0
 40
0
 40
1
 40
1
 40
1
 40
1
 10
731.074151
 20
234.799537
 30
0.0
 10
737.526571
 20
263.342522
 30
0.0
 10
729.503769
 20
282.614111
 30
0.0
 10
707.804470
 20
297.739864
 30
0.0
  0
SPLINE
  5
1b8
100
AcDbEntity
  8
Layer_1
 62
1
100
AcDbSpline
 70
8
 71
3
 72
8
 73
4
 74
0
 40
0
 40
0
 40
0
 40
0
 40
1
 40
1
 40
1
 40
1
 10
707.804470
 20
297.739864
 30
0.0
 10
677.108199
 20
319.132643
 30
0.0
 10
636.013354
 20
319.470463
 30
0.0
 10
609.155235
 20
298.538641
 30
0.0
  0
SPLINE
  5
1b9
100
AcDbEntity
  8
Layer_1
 62
1
100
AcDbSpline
 70
8
 71
3
 72
8
 73
4
 74
0
 40
0
 40
0
 40
0
 40
0
 40
1
 40
1
 40
1
 40
1
 10
609.155235
 20
298.538641
 30
0.0
 10
581.932680
 20
277.326863
 30
0.0
 10
570.735434
 20
235.834772
 30
0.0
 10
582.335402
 20
193.225399
 30
0.0
  0
SPLINE
  5
1ba
100
AcDbEntity
  8
Layer_1
 62
1
100
AcDbSpline
 70
8
 71
3
 72
8
 73
4
 74
0
 40
0
 40
0
 40
0
 40
0
 40
1
 40
1
 40
1
 40
1
 10
582.335402
 20
193.225399
 30
0.0
 10
599.031139
 20
131.916361
 30
0.0
 10
637.417233
 20
95.043075
 30
0.0
 10
695.455307
 20
81.442428
 30
0.0
  0
SPLINE
  5
1bb
100
AcDbEntity
  8
Layer_1
 62
1
100
AcDbSpline
 70
8
 71
3
 72
8
 73
4
 74
0
 40
0
 40
0
 40
0
 40
0
 40
1
 40
1
 40
1
 40
1
 10
695.455307
 20
81.442428
 30
0.0
 10
700.863840
 20
80.177931
 30
0.0
 10
706.238613
 20
78.737275
 30
0.0
 10
711.629128
 20
77.376232
 30
0.0
  0
LWPOLYLINE
  5
1bc
100
AcDbEntity
  8
Layer_1
 62
1
100
AcDbPolyline
 90
3
 70
0
 10
730.333952
 20
979.902525
 30
0.0
 10
719.114190
 20
979.902525
 30
0.0
 10
719.114190
 20
957.759255
 30
0.0
  0
LWPOLYLINE
  5
1bd
100
AcDbEntity
  8
Layer_1
 62
1
100
AcDbPolyline
 90
2
 70
0
 10
711.629128
 20
77.376232
 30
0.0
 10
752.773476
 20
77.376232
 30
0.0
  0
LWPOLYLINE
  5
1be
100
AcDbEntity
  8
Layer_1
 62
7
100
AcDbPolyline
 90
4
 70
1
 10
23.898315
 20
349.859665
 30
0.0
 10
446.197710
 20
349.859665
 30
0.0
 10
446.197710
 20
331.984420
 30
0.0
 10
23.898315
 20
331.984420
 30
0.0
  0
LWPOLYLINE
  5
1bf
100
AcDbEntity
  8
Layer_1
 62
7
100
AcDbPolyline
 90
4
 70
1
 10
23.898315
 20
117.973536
 30
0.0
 10
446.197657
 20
117.973536
 30
0.0
 10
446.197657
 20
100.098291
 30
0.0
 10
23.898315
 20
100.098291
 30
0.0
  0
LWPOLYLINE
  5
1c0
100
AcDbEntity
  8
Layer_1
 62
7
100
AcDbPolyline
 90
4
 70
1
 10
23.873496
 20
118.764783
 30
0.0
 10
23.873496
 20
331.273711
 30
0.0
 10
41.819007
 20
331.273711
 30
0.0
 10
41.819007
 20
118.764783
 30
0.0
  0
LWPOLYLINE
  5
1c1
100
AcDbEntity
  8
Layer_1
 62
7
100
AcDbPolyline
 90
4
 70
1
 10
1006.489975
 20
100.098289
 30
0.0
 10
584.190634
 20
100.098289
 30
0.0
 10
584.190634
 20
117.973534
 30
0.0
 10
1006.489975
 20
117.973534
 30
0.0
  0
LWPOLYLINE
  5
1c2
100
AcDbEntity
  8
Layer_1
 62
7
100
AcDbPolyline
 90
4
 70
1
 10
1006.489975
 20
331.984392
 30
0.0
 10
584.190660
 20
331.984392
 30
0.0
 10
584.190660
 20
349.859637
 30
0.0
 10
1006.489975
 20
349.859637
 30
0.0
  0
LWPOLYLINE
  5
1c3
100
AcDbEntity
  8
Layer_1
 62
7
100
AcDbPolyline
 90
4
 70
1
 10
1006.702171
 20
331.006100
 30
0.0
 10
1006.702171
 20
118.497188
 30
0.0
 10
988.756660
 20
118.497188
 30
0.0
 10
988.756660
 20
331.006100
 30
0.0
  0
ENDSEC
  0
SECTION
  2
OBJECTS
  0
DICTIONARY
  5
C
330
0
100
AcDbDictionary
  3
ACAD_GROUP
350
D
  3
ACAD_MLINESTYLE
350
17
  0
DICTIONARY
  5
D
330
C
100
AcDbDictionary
  0
DICTIONARY
  5
1A
330
C
100
AcDbDictionary
  0
DICTIONARY
  5
17
330
C
100
AcDbDictionary
  3
STANDARD
350
18
  0
DICTIONARY
  5
19
330
C
100
AcDbDictionary
  0
ENDSEC
  0
EOF
