<?xml version="1.0" encoding="UTF-8" standalone="no"?>
<!-- Created with Inkscape (http://www.inkscape.org/) -->

<svg
   xmlns:dc="http://purl.org/dc/elements/1.1/"
   xmlns:cc="http://creativecommons.org/ns#"
   xmlns:rdf="http://www.w3.org/1999/02/22-rdf-syntax-ns#"
   xmlns:svg="http://www.w3.org/2000/svg"
   xmlns="http://www.w3.org/2000/svg"
   xmlns:sodipodi="http://sodipodi.sourceforge.net/DTD/sodipodi-0.dtd"
   xmlns:inkscape="http://www.inkscape.org/namespaces/inkscape"
   width="48in"
   height="48in"
   viewBox="0 0 4320.0001 4320.0001"
   id="svg2"
   version="1.1"
   inkscape:version="0.92.0 r15299"
   sodipodi:docname="SeahorseBookCase.svg">
  <defs
     id="defs4" />
  <sodipodi:namedview
     id="base"
     pagecolor="#ffffff"
     bordercolor="#666666"
     borderopacity="1.0"
     inkscape:pageopacity="0.0"
     inkscape:pageshadow="2"
     inkscape:zoom="0.49497475"
     inkscape:cx="2656.415"
     inkscape:cy="1570.2125"
     inkscape:document-units="mm"
     inkscape:current-layer="layer1"
     showgrid="false"
     units="in"
     inkscape:window-width="3840"
     inkscape:window-height="2004"
     inkscape:window-x="-16"
     inkscape:window-y="-16"
     inkscape:window-maximized="1"
     inkscape:measure-start="-307.143,785.714"
     inkscape:measure-end="96.3442,167.658" />
  <metadata
     id="metadata7">
    <rdf:RDF>
      <cc:Work
         rdf:about="">
        <dc:format>image/svg+xml</dc:format>
        <dc:type
           rdf:resource="http://purl.org/dc/dcmitype/StillImage" />
        <dc:title></dc:title>
      </cc:Work>
    </rdf:RDF>
  </metadata>
  <g
     inkscape:label="Layer 1"
     inkscape:groupmode="layer"
     id="layer1"
     transform="translate(0,3267.6378)">
    <path
       style="fill:none;stroke:#000000;stroke-width:2.81250007;stroke-miterlimit:4;stroke-dasharray:none;stroke-opacity:1"
       d="M 1132.6133 904.43945 C 1058.2445 997.95355 977.36235 1050.4607 857.45898 919.73438 C 885.39192 1090.1265 809.46543 1133.3762 681.82422 1130.5488 C 755.3427 1260.509 677.58196 1325.6486 592.82227 1392.7949 C 632.11546 1423.112 661.2647 1447.1998 691.91016 1468.8613 C 738.38854 1501.6957 748.49797 1534.5302 708.15039 1585.0039 C 671.73978 1630.5797 640.97583 1682.612 614.31836 1735.6211 C 488.58185 1985.6364 517.80762 2199.9821 701.81641 2404.0293 C 718.01497 2421.997 735.46371 2441.2762 744.08594 2463.6035 C 749.71504 2478.1692 746.43154 2505.1766 736.81445 2516.6504 C 675.61707 2589.6247 592.28743 2542.9105 537.61133 2484.9922 C 537.61133 2484.9922 457.0588 2392.4156 442.62891 2342.1973 C 320.14061 2471.4642 264.61611 2453.7534 129.37305 2397.7891 C 142.9069 2449.975 149.6123 2588.7637 26.007812 2682.418 C 67.81891 2729.9386 58.274555 2887.4147 13.492188 2916.5449 C 104.25315 2942.4181 171.61401 3050.0925 189.01562 3124.1211 C 252.68742 3105.971 310.37271 3086.3896 369.38477 3074.168 C 465.88466 3055.3805 460.38043 3133.5515 432.31641 3203.0332 C 428.03312 3215.8297 424.01235 3228.6055 420.23242 3241.3613 L 91.359375 3241.3613 C 41.499375 3241.3613 1.359375 3281.5013 1.359375 3331.3613 L 1.359375 4228.6406 C 1.359375 4278.5006 41.499375 4318.6406 91.359375 4318.6406 L 1672.1211 4318.6406 C 1721.9811 4318.6406 1762.1211 4278.5006 1762.1211 4228.6406 L 1762.1211 3331.3613 C 1762.1211 3281.5013 1721.9811 3241.3613 1672.1211 3241.3613 L 1013.0332 3241.3613 C 1096.2412 3158.9886 1197.3986 3105.3764 1303.0078 3057.2129 C 1393.3456 3016.0149 1485.4515 2972.8828 1565.3984 2913.1152 C 1783.3688 2750.1383 1820.9113 2468.0917 1655.6094 2245.1465 C 1606.8352 2179.341 1542.2031 2124.3993 1477.6895 2075.2754 C 1393.542 2011.2121 1299.5207 1962.1612 1214.7695 1898.9004 C 1105.0615 1816.9786 1083.1246 1807.9509 1183.4707 1700.7832 C 1266.7409 1778.233 1292.5996 1792.6148 1409.918 1804.043 C 1530.5271 1815.7813 1613.9494 1644.4298 1751.8887 1672.4004 C 1782.7567 1679.6487 1808.5568 1707.3187 1826.541 1700.0312 C 1867.7218 1683.3678 1917.7929 1661.6813 1935.2266 1620.6582 C 1936.5544 1571.5906 1932.2649 1517.7628 1881.5781 1505.1836 C 1697.6137 1420.5693 1600.5247 1472.3351 1550.8066 1227.9199 C 1529.9313 1125.2762 1457.5193 1054.0635 1349.7246 1042.7812 C 1336.9443 1041.4313 1324.7512 1033.8882 1308.7227 1027.8867 C 1315.1426 1000.543 1320.5842 977.37672 1327.6504 947.32422 C 1275.5599 961.24242 1228.2134 973.90071 1175.0176 988.12891 L 1175.0176 904.43945 L 1132.6133 904.43945 z "
       transform="translate(0,-3267.6378)"
       id="rect4146-9" />
    <rect
       style="fill:#00ff00;stroke:#000000;stroke-width:0.64191252;stroke-miterlimit:4;stroke-dasharray:none;stroke-opacity:1"
       id="rect4146"
       width="1579.358"
       height="66.858093"
       x="99.736847"
       y="-580.25214"
       ry="0" />
    <rect
       style="fill:#00ff00;stroke:#000000;stroke-width:0.5464887;stroke-miterlimit:4;stroke-dasharray:none;stroke-opacity:1"
       id="rect4146-5"
       width="1143.0675"
       height="66.953522"
       x="762.84802"
       y="-1713.5475"
       ry="0" />
    <rect
       style="fill:#00ff00;stroke:#000000;stroke-width:0.33049962;stroke-miterlimit:4;stroke-dasharray:none;stroke-opacity:1"
       id="rect4146-5-2"
       width="416.72821"
       height="67.169518"
       x="1715.9961"
       y="762.12946"
       ry="0"
       transform="matrix(0,-1,1,0,0,0)" />
    <path
       id="path4137-9"
       d="M 1047.4429,1047.9175 C 811.75183,999.5598 624.01865,870.4478 494.75332,653.8051 359.94392,427.8501 348.27756,185.3867 431.95735,-64.610304 460.02137,-134.092 465.52521,-212.2634 369.02532,-193.476 c -59.01206,12.2217 -116.69763,31.8038 -180.36945,49.9539 -17.4016,-74.0287 -84.7616,-181.7037 -175.522599,-207.5769 44.7824,-29.1303 54.3278,-186.6065 12.5167,-234.1271 123.604499,-93.6542 116.898499,-232.4421 103.364599,-284.6281 135.24308,55.9643 190.7669,73.6742 313.2552,-55.5927 14.42989,50.2183 94.98201,142.7956 94.98201,142.7956 54.6761,57.9183 138.00703,104.6317 199.20441,31.6574 9.61709,-11.4738 12.89932,-38.48 7.27022,-53.0457 -8.62223,-22.3273 -26.07075,-41.6084 -42.26931,-59.5761 -184.00879,-204.0471 -213.23422,-418.3915 -87.49771,-668.4069 26.65747,-53.009 57.42197,-105.0425 93.83258,-150.6183 40.34758,-50.4736 30.23731,-83.308 -16.24107,-116.1424 -30.64546,-21.6615 -59.79436,-45.7491 -99.08755,-76.0662 84.75969,-67.1463 162.52126,-132.2859 89.00278,-262.2461 127.64121,2.8275 203.56613,-40.4225 175.63319,-210.8146 119.90337,130.7262 200.78558,78.2188 275.15438,-15.2953 h 42.4054 v 83.6911 c 53.1958,-14.2282 100.5415,-26.8876 152.632,-40.8058 -7.0662,30.0525 -12.5082,53.2189 -18.9281,80.5627 16.0285,6.0014 28.2221,13.5441 41.0024,14.8941 107.7947,11.2822 180.2078,82.4962 201.0831,185.1399 49.7181,244.4152 146.8062,192.6487 330.7706,277.263 50.6868,12.5792 54.976,66.4076 53.6482,115.4751 -17.4337,41.0231 -67.5035,62.7094 -108.6843,79.3728 -17.9842,7.2875 -43.7848,-20.3831 -74.6528,-27.6314 -137.9393,-27.9706 -221.361,143.3817 -341.9701,131.6434 -117.3184,-11.4282 -143.1782,-25.8106 -226.4484,-103.2603 -100.3461,107.1677 -78.4083,116.1945 31.2997,198.1164 84.7512,63.2608 178.7708,112.3117 262.9183,176.375 64.5136,49.1239 129.1463,104.0666 177.9205,169.8721 165.3019,222.9452 127.7602,504.9921 -90.2102,667.969 -79.9469,59.7676 -172.0533,102.8992 -262.3911,144.0972 C 1171.2153,-150.4903 1046.6692,-82.122 955.04739,39.638696 855.48371,171.9611 827.30414,319.8616 886.7499,478.9257 c 56.44419,151.0198 140.6426,274.6775 305.9614,301.4101 172.3509,27.8818 331.2669,-128.7015 315.5785,-315.3556 -6.8791,-81.876 -38.6215,-151.3663 -117.4714,-181.7471 -61.3845,-23.6499 -129.7331,5.518 -185.4289,76.0388 -23.0096,29.1222 -46.6825,57.6152 -75.9334,93.6599 -24.3871,-107.879 5.9353,-180.7165 87.9484,-237.8847 116.0174,-80.8546 271.3365,-82.1314 372.8475,-3.019 102.8884,80.1705 145.2087,236.991 101.3663,398.0343 -63.102,231.7192 -208.1833,371.0828 -427.5398,422.4868 -20.4417,4.7792 -40.7558,10.2242 -61.1294,15.3683 z"
       stroke-miterlimit="10"
       inkscape:connector-curvature="0"
       style="clip-rule:evenodd;fill:none;fill-rule:evenodd;stroke:#ff0000;stroke-width:2.8125;stroke-miterlimit:10;stroke-dasharray:none"
       sodipodi:nodetypes="ccccccccccccccccccccccccccccccccccccsccccccccccccc" />
    <path
       inkscape:connector-curvature="0"
       style="fill:none;stroke:#000000;stroke-width:2.81250007;stroke-miterlimit:4;stroke-dasharray:none;stroke-opacity:1"
       d="m 2759.9577,-2363.1993 c 74.3688,93.5141 155.251,146.0212 275.1544,15.2949 -27.933,170.3922 47.9935,213.6418 175.6347,210.8144 -73.5185,129.9602 4.2423,195.0998 89.002,262.2462 -39.2932,30.317 -68.4425,54.4048 -99.0879,76.0663 -46.4784,32.8345 -56.5878,65.6689 -16.2402,116.1426 36.4106,45.5759 67.1745,97.6081 93.832,150.6173 125.7365,250.0153 96.5107,464.361 -87.4981,668.40818 -16.1985,17.9677 -33.6473,37.2469 -42.2695,59.5742 -5.6291,14.5657 -2.3456,41.5731 7.2715,53.0469 61.1974,72.9743 144.527,26.2601 199.2031,-31.6582 0,0 80.5525,-92.5766 94.9824,-142.7949 122.4883,129.2669 178.0128,111.5561 313.2559,55.5918 -13.5339,52.1859 -20.2393,190.9746 103.3652,284.6289 -41.8111,47.5206 -32.2667,204.9967 12.5157,234.1269 -90.761,25.8732 -158.1219,133.5476 -175.5235,207.5762 -63.6718,-18.1501 -121.3571,-37.7315 -180.3691,-49.9531 -96.4999,-18.7875 -90.9957,59.3835 -62.9317,128.865199 4.2833,12.7965 8.3041,25.5723 12.084,38.3281 l 328.8731,0 c 49.86,0 90,40.140001 90,90 l 0,897.279301 c 0,49.86002 -40.14,90.00002 -90,90.00002 l -1580.7618,0 c -49.86,0 -90,-40.14 -90,-90.00002 l 0,-897.279301 c 0,-49.859999 40.14,-90 90,-90 l 659.0879,0 c -83.208,-82.372699 -184.3654,-135.984899 -289.9746,-184.148399 -90.3378,-41.198 -182.4437,-84.3301 -262.3906,-144.0977 -217.9704,-162.9769 -255.5129,-445.0235 -90.211,-667.96868 48.7742,-65.8055 113.4063,-120.7472 177.9199,-169.8711 84.1475,-64.0633 178.1688,-113.1142 262.92,-176.375 109.708,-81.9219 131.6449,-90.9496 31.2988,-198.1173 -83.2702,77.4498 -109.1289,91.8316 -226.4473,103.2598 -120.6091,11.7383 -204.0314,-159.6132 -341.9707,-131.6426 -30.868,7.2483 -56.6681,34.9183 -74.6523,27.6308 -41.1808,-16.6634 -91.2519,-38.3499 -108.6856,-79.373 -1.3278,-49.0676 2.9617,-102.8954 53.6485,-115.4746 183.9644,-84.6143 281.0534,-32.8485 330.7715,-277.2637 20.8753,-102.6437 93.2873,-173.8564 201.082,-185.1387 12.7803,-1.3499 24.9734,-8.893 41.0019,-14.8945 -6.4199,-27.3437 -11.8615,-50.5099 -18.9277,-80.5624 52.0905,13.9182 99.437,26.5765 152.6328,40.8047 l 0,-83.6895 42.4043,0 z"
       id="rect4146-9-5" />
    <rect
       style="fill:#00ff00;stroke:#000000;stroke-width:0.64191252;stroke-miterlimit:4;stroke-dasharray:none;stroke-opacity:1"
       id="rect4146-0"
       width="1579.358"
       height="66.858093"
       x="-3792.8342"
       y="-580.25299"
       ry="0"
       transform="scale(-1,1)" />
    <rect
       style="fill:#00ff00;stroke:#000000;stroke-width:0.5464887;stroke-miterlimit:4;stroke-dasharray:none;stroke-opacity:1"
       id="rect4146-5-7"
       width="1143.0675"
       height="66.953522"
       x="-3129.7229"
       y="-1713.5487"
       ry="0"
       transform="scale(-1,1)" />
    <rect
       style="fill:#00ff00;stroke:#000000;stroke-width:0.33049962;stroke-miterlimit:4;stroke-dasharray:none;stroke-opacity:1"
       id="rect4146-5-2-7"
       width="416.72821"
       height="67.169518"
       x="1715.9974"
       y="-3130.4417"
       ry="0"
       transform="matrix(0,-1,-1,0,0,0)" />
    <path
       id="path4137-9-7"
       d="m 2845.1281,1047.9166 c 235.6911,-48.3577 423.4243,-177.46972 552.6896,-394.11242 134.8094,-225.955 146.4758,-468.4184 62.796,-718.415501 -28.064,-69.481599 -33.5679,-147.652999 62.932,-128.865599 59.0121,12.2217 116.6977,31.8038 180.3695,49.9539 17.4016,-74.0287 84.7616,-181.7037 175.5226,-207.5769 -44.7824,-29.1303 -54.3278,-186.6065 -12.5167,-234.1271 -123.6045,-93.6542 -116.8985,-232.4421 -103.3646,-284.6281 -135.2431,55.9643 -190.7669,73.6742 -313.2552,-55.5927 -14.4299,50.2183 -94.982,142.7956 -94.982,142.7956 -54.6761,57.9183 -138.0071,104.6317 -199.2044,31.6574 -9.6171,-11.4738 -12.8994,-38.48 -7.2703,-53.0457 8.6223,-22.3273 26.0708,-41.6084 42.2693,-59.5761 184.0088,-204.04708 213.2343,-418.39148 87.4978,-668.40698 -26.6575,-53.009 -57.422,-105.0425 -93.8326,-150.6183 -40.3476,-50.4736 -30.2373,-83.308 16.241,-116.1424 30.6455,-21.6615 59.7944,-45.7491 99.0876,-76.0662 -84.7597,-67.1462 -162.5213,-132.2859 -89.0028,-262.2461 -127.6412,2.8276 -203.5661,-40.4224 -175.6332,-210.8145 -119.9033,130.7262 -200.7856,78.2188 -275.1544,-15.2953 h -42.4054 v 83.6911 c -53.1958,-14.2282 -100.5415,-26.8876 -152.632,-40.8058 7.0662,30.0525 12.5082,53.2188 18.9281,80.5627 -16.0285,6.0013 -28.2221,13.544 -41.0024,14.8941 -107.7947,11.2821 -180.2078,82.4962 -201.0831,185.1398 -49.7181,244.4153 -146.8062,192.6487 -330.7706,277.263 -50.6868,12.5792 -54.976,66.4077 -53.6482,115.4751 17.4337,41.0231 67.5035,62.7094 108.6843,79.3728 17.9842,7.2875 43.7848,-20.3831 74.6528,-27.6313 137.9393,-27.9706 221.361,143.3817 341.9701,131.6434 117.3184,-11.4283 143.1782,-25.8107 226.4484,-103.2603 100.3461,107.1677 78.4083,116.1944 -31.2997,198.1164 -84.7512,63.2608 -178.7708,112.3117 -262.9183,176.375 -64.5136,49.1239 -129.1463,104.0666 -177.9205,169.8721 -165.3019,222.94518 -127.7602,504.99208 90.2102,667.96898 79.9469,59.7676 172.0533,102.8992 262.3911,144.0972 131.4336,59.9409 255.9797,128.309199 347.6016,250.069799 99.5636,132.322501 127.7432,280.223001 68.2974,439.287101 -56.4441,151.0198 -140.6426,274.6775 -305.9614,301.4101 -172.3509,27.8818 -331.2669,-128.7015 -315.5785,-315.3556 6.8791,-81.876 38.6215,-151.3663 117.4714,-181.7471 61.3845,-23.6499 129.7331,5.518 185.4289,76.0388 23.0096,29.1222 46.6825,57.6152 75.9334,93.6599 24.3871,-107.879 -5.9353,-180.7165 -87.9484,-237.8847 -116.0174,-80.8546 -271.3365,-82.1314 -372.8475,-3.019 -102.8884,80.1705 -145.2087,236.991 -101.3663,398.0343 63.102,231.7192 208.1833,371.0828 427.5398,422.48682 20.4417,4.7792 40.7558,10.2242 61.1294,15.3683 z"
       stroke-miterlimit="10"
       inkscape:connector-curvature="0"
       style="clip-rule:evenodd;fill:none;fill-rule:evenodd;stroke:#ff0000;stroke-width:2.8125;stroke-miterlimit:10;stroke-dasharray:none"
       sodipodi:nodetypes="ccccccccccccccccccccccccccccccccccccsccccccccccccc" />
    <rect
       style="fill:#00ff00;stroke:#000000;stroke-width:0.64868265;stroke-miterlimit:4;stroke-dasharray:none;stroke-opacity:1"
       id="rect4146-90"
       width="1596.0922"
       height="67.559982"
       x="90.324341"
       y="18.057955"
       ry="0" />
    <rect
       style="fill:#00ff00;stroke:#000000;stroke-width:0.64868259;stroke-miterlimit:4;stroke-dasharray:none;stroke-opacity:1"
       id="rect4146-90-2"
       width="1596.092"
       height="67.559982"
       x="90.324341"
       y="894.47797"
       ry="0" />
    <rect
       style="fill:#00ff00;stroke:#000000;stroke-width:0.46106526;stroke-miterlimit:4;stroke-dasharray:none;stroke-opacity:1"
       id="rect4146-5-2-1"
       width="803.18335"
       height="67.825554"
       x="-891.48743"
       y="90.230537"
       ry="0"
       transform="rotate(-90)" />
    <rect
       style="fill:#00ff00;stroke:#000000;stroke-width:0.64868259;stroke-miterlimit:4;stroke-dasharray:none;stroke-opacity:1"
       id="rect4146-90-6"
       width="1596.092"
       height="67.559982"
       x="-3804.0566"
       y="-962.03796"
       ry="0"
       transform="scale(-1)" />
    <rect
       style="fill:#00ff00;stroke:#000000;stroke-width:0.64868259;stroke-miterlimit:4;stroke-dasharray:none;stroke-opacity:1"
       id="rect4146-90-2-3"
       width="1596.0919"
       height="67.559982"
       x="-3804.0566"
       y="-85.618042"
       ry="0"
       transform="scale(-1)" />
    <rect
       style="fill:#00ff00;stroke:#000000;stroke-width:0.46106523;stroke-miterlimit:4;stroke-dasharray:none;stroke-opacity:1"
       id="rect4146-5-2-1-1"
       width="803.18329"
       height="67.825554"
       x="89.315521"
       y="-3804.8586"
       ry="0"
       transform="rotate(90)" />
  </g>
</svg>
