  0
SECTION
  2
BLOCKS
  0
ENDSEC
  0
SECTION
  2
ENTITIES
  0
LINE
  8
0
 10
15.875
 20
19.05
 11
34.925
 21
19.05
  0
LINE
  8
0
 10
34.925
 20
19.05
 11
34.925
 21
0
  0
LINE
  8
0
 10
34.925
 20
0
 11
53.975
 21
0
  0
LINE
  8
0
 10
53.975
 20
0
 11
53.975
 21
19.05
  0
LINE
  8
0
 10
53.975
 20
19.05
 11
73.025
 21
19.05
  0
LINE
  8
0
 10
73.025
 20
19.05
 11
73.025
 21
0
  0
LINE
  8
0
 10
73.025
 20
0
 11
92.075
 21
0
  0
LINE
  8
0
 10
92.075
 20
0
 11
92.075
 21
19.05
  0
LINE
  8
0
 10
92.075
 20
19.05
 11
111.125
 21
19.05
  0
LINE
  8
0
 10
111.125
 20
19.05
 11
111.125
 21
0
  0
LINE
  8
0
 10
111.125
 20
0
 11
130.175
 21
0
  0
LINE
  8
0
 10
130.175
 20
0
 11
130.175
 21
19.05
  0
LINE
  8
0
 10
130.175
 20
19.05
 11
149.225
 21
19.05
  0
LINE
  8
0
 10
149.225
 20
19.05
 11
149.225
 21
0
  0
LINE
  8
0
 10
149.225
 20
0
 11
168.275
 21
0
  0
LINE
  8
0
 10
168.275
 20
0
 11
168.275
 21
19.05
  0
LINE
  8
0
 10
168.275
 20
19.05
 11
187.325
 21
19.05
  0
LINE
  8
0
 10
187.325
 20
19.05
 11
187.325
 21
0
  0
LINE
  8
0
 10
187.325
 20
0
 11
206.375
 21
0
  0
LINE
  8
0
 10
206.375
 20
0
 11
206.375
 21
19.05
  0
LINE
  8
0
 10
206.375
 20
19.05
 11
225.425
 21
19.05
  0
LINE
  8
0
 10
225.425
 20
19.05
 11
225.425
 21
0
  0
LINE
  8
0
 10
225.425
 20
0
 11
244.475
 21
0
  0
LINE
  8
0
 10
244.475
 20
0
 11
244.475
 21
412.75
  0
LINE
  8
0
 10
244.475
 20
412.75
 11
225.425
 21
412.75
  0
LINE
  8
0
 10
225.425
 20
412.75
 11
225.425
 21
393.7
  0
LINE
  8
0
 10
225.425
 20
393.7
 11
206.375
 21
393.7
  0
LINE
  8
0
 10
206.375
 20
393.7
 11
206.375
 21
412.75
  0
LINE
  8
0
 10
206.375
 20
412.75
 11
187.325
 21
412.75
  0
LINE
  8
0
 10
187.325
 20
412.75
 11
187.325
 21
393.7
  0
LINE
  8
0
 10
187.325
 20
393.7
 11
168.275
 21
393.7
  0
LINE
  8
0
 10
168.275
 20
393.7
 11
168.275
 21
412.75
  0
LINE
  8
0
 10
168.275
 20
412.75
 11
149.225
 21
412.75
  0
LINE
  8
0
 10
149.225
 20
412.75
 11
149.225
 21
393.7
  0
LINE
  8
0
 10
149.225
 20
393.7
 11
130.175
 21
393.7
  0
LINE
  8
0
 10
130.175
 20
393.7
 11
130.175
 21
412.75
  0
LINE
  8
0
 10
130.175
 20
412.75
 11
111.125
 21
412.75
  0
LINE
  8
0
 10
111.125
 20
412.75
 11
111.125
 21
393.7
  0
LINE
  8
0
 10
111.125
 20
393.7
 11
92.075
 21
393.7
  0
LINE
  8
0
 10
92.075
 20
393.7
 11
92.075
 21
412.75
  0
LINE
  8
0
 10
92.075
 20
412.75
 11
73.025
 21
412.75
  0
LINE
  8
0
 10
73.025
 20
412.75
 11
73.025
 21
393.7
  0
LINE
  8
0
 10
73.025
 20
393.7
 11
53.975
 21
393.7
  0
LINE
  8
0
 10
53.975
 20
393.7
 11
53.975
 21
412.75
  0
LINE
  8
0
 10
53.975
 20
412.75
 11
34.925
 21
412.75
  0
LINE
  8
0
 10
34.925
 20
412.75
 11
34.925
 21
393.7
  0
LINE
  8
0
 10
34.925
 20
393.7
 11
15.875
 21
393.7
  0
LINE
  8
0
 10
15.875
 20
393.7
 11
15.875
 21
412.75
  0
LINE
  8
0
 10
15.875
 20
412.75
 11
0
 21
412.75
  0
LINE
  8
0
 10
0
 20
412.75
 11
0
 21
0
  0
LINE
  8
0
 10
0
 20
0
 11
15.875
 21
0
  0
LINE
  8
0
 10
15.875
 20
0
 11
15.875
 21
19.05
  0
LINE
  8
0
 10
98.945
 20
76.3391
 11
93.751
 21
77.4432
  0
LINE
  8
0
 10
93.751
 20
77.4432
 11
88.9
 21
79.603
  0
LINE
  8
0
 10
88.9
 20
79.603
 11
84.6041
 21
82.7241
  0
LINE
  8
0
 10
84.6041
 20
82.7241
 11
81.051
 21
86.6703
  0
LINE
  8
0
 10
81.051
 20
86.6703
 11
78.3959
 21
91.2689
  0
LINE
  8
0
 10
78.3959
 20
91.2689
 11
76.7551
 21
96.319
  0
LINE
  8
0
 10
76.7551
 20
96.319
 11
76.2
 21
101.6
  0
LINE
  8
0
 10
76.2
 20
101.6
 11
76.2
 21
311.15
  0
LINE
  8
0
 10
76.2
 20
311.15
 11
76.7551
 21
316.431
  0
LINE
  8
0
 10
76.7551
 20
316.431
 11
78.3959
 21
321.481
  0
LINE
  8
0
 10
78.3959
 20
321.481
 11
81.051
 21
326.08
  0
LINE
  8
0
 10
81.051
 20
326.08
 11
84.6041
 21
330.026
  0
LINE
  8
0
 10
84.6041
 20
330.026
 11
88.9
 21
333.147
  0
LINE
  8
0
 10
88.9
 20
333.147
 11
93.751
 21
335.307
  0
LINE
  8
0
 10
93.751
 20
335.307
 11
98.945
 21
336.411
  0
LINE
  8
0
 10
98.945
 20
336.411
 11
104.255
 21
336.411
  0
LINE
  8
0
 10
104.255
 20
336.411
 11
109.449
 21
335.307
  0
LINE
  8
0
 10
109.449
 20
335.307
 11
114.3
 21
333.147
  0
LINE
  8
0
 10
114.3
 20
333.147
 11
118.596
 21
330.026
  0
LINE
  8
0
 10
118.596
 20
330.026
 11
122.149
 21
326.08
  0
LINE
  8
0
 10
122.149
 20
326.08
 11
124.804
 21
321.481
  0
LINE
  8
0
 10
124.804
 20
321.481
 11
126.445
 21
316.431
  0
LINE
  8
0
 10
126.445
 20
316.431
 11
127
 21
311.15
  0
LINE
  8
0
 10
127
 20
311.15
 11
127
 21
101.6
  0
LINE
  8
0
 10
127
 20
101.6
 11
126.445
 21
96.319
  0
LINE
  8
0
 10
126.445
 20
96.319
 11
124.804
 21
91.2689
  0
LINE
  8
0
 10
124.804
 20
91.2689
 11
122.149
 21
86.6703
  0
LINE
  8
0
 10
122.149
 20
86.6703
 11
118.596
 21
82.7241
  0
LINE
  8
0
 10
118.596
 20
82.7241
 11
114.3
 21
79.603
  0
LINE
  8
0
 10
114.3
 20
79.603
 11
109.449
 21
77.4432
  0
LINE
  8
0
 10
109.449
 20
77.4432
 11
104.255
 21
76.3391
  0
LINE
  8
0
 10
104.255
 20
76.3391
 11
98.945
 21
76.3391
  0
ENDSEC
  0
SECTION
  2
OBJECTS
  0
DICTIONARY
  0
ENDSEC
  0
EOF
